<svg width="218" height="38" viewBox="0 0 218 38" fill="none" xmlns="http://www.w3.org/2000/svg">
<path d="M0.978871 37V0.636363H25.0556V6.97514H8.66708V15.6399H23.4576V21.9787H8.66708V37H0.978871ZM63.6431 18.8182C63.6431 22.7836 62.8915 26.1572 61.3881 28.9389C59.8967 31.7206 57.8607 33.8454 55.2802 35.3132C52.7115 36.7692 49.8233 37.4972 46.6154 37.4972C43.3839 37.4972 40.4838 36.7633 37.9151 35.2955C35.3465 33.8277 33.3164 31.7029 31.8249 28.9212C30.3335 26.1394 29.5877 22.7718 29.5877 18.8182C29.5877 14.8527 30.3335 11.4792 31.8249 8.69744C33.3164 5.91572 35.3465 3.79687 37.9151 2.34091C40.4838 0.873105 43.3839 0.139203 46.6154 0.139203C49.8233 0.139203 52.7115 0.873105 55.2802 2.34091C57.8607 3.79687 59.8967 5.91572 61.3881 8.69744C62.8915 11.4792 63.6431 14.8527 63.6431 18.8182ZM55.8484 18.8182C55.8484 16.2495 55.4637 14.0833 54.6942 12.3196C53.9367 10.5559 52.8654 9.21828 51.4805 8.30682C50.0955 7.39536 48.4738 6.93963 46.6154 6.93963C44.757 6.93963 43.1353 7.39536 41.7504 8.30682C40.3654 9.21828 39.2882 10.5559 38.5188 12.3196C37.7612 14.0833 37.3825 16.2495 37.3825 18.8182C37.3825 21.3868 37.7612 23.553 38.5188 25.3168C39.2882 27.0805 40.3654 28.4181 41.7504 29.3295C43.1353 30.241 44.757 30.6967 46.6154 30.6967C48.4738 30.6967 50.0955 30.241 51.4805 29.3295C52.8654 28.4181 53.9367 27.0805 54.6942 25.3168C55.4637 23.553 55.8484 21.3868 55.8484 18.8182ZM69.3382 37V0.636363H83.6848C86.431 0.636363 88.7748 1.1276 90.7161 2.11008C92.6692 3.08073 94.1548 4.45975 95.1728 6.24716C96.2026 8.02273 96.7175 10.112 96.7175 12.5149C96.7175 14.9297 96.1967 17.0071 95.155 18.7472C94.1133 20.4754 92.6041 21.8011 90.6273 22.7244C88.6623 23.6477 86.2831 24.1094 83.4895 24.1094H73.8837V17.9304H82.2466C83.7144 17.9304 84.9337 17.7292 85.9043 17.3267C86.8749 16.9242 87.597 16.3205 88.0705 15.5156C88.5558 14.7107 88.7985 13.7105 88.7985 12.5149C88.7985 11.3075 88.5558 10.2895 88.0705 9.46094C87.597 8.63234 86.869 8.00497 85.8865 7.57883C84.9159 7.14086 83.6908 6.92188 82.2111 6.92188H77.0265V37H69.3382ZM88.976 20.4517L98.0137 37H89.5265L80.6841 20.4517H88.976ZM111.592 0.636363H120.204L128.496 16.2969H128.851L137.143 0.636363H145.754L132.491 24.1449V37H124.856V24.1449L111.592 0.636363ZM181.172 18.8182C181.172 22.7836 180.421 26.1572 178.917 28.9389C177.426 31.7206 175.39 33.8454 172.809 35.3132C170.241 36.7692 167.353 37.4972 164.145 37.4972C160.913 37.4972 158.013 36.7633 155.444 35.2955C152.876 33.8277 150.846 31.7029 149.354 28.9212C147.863 26.1394 147.117 22.7718 147.117 18.8182C147.117 14.8527 147.863 11.4792 149.354 8.69744C150.846 5.91572 152.876 3.79687 155.444 2.34091C158.013 0.873105 160.913 0.139203 164.145 0.139203C167.353 0.139203 170.241 0.873105 172.809 2.34091C175.39 3.79687 177.426 5.91572 178.917 8.69744C180.421 11.4792 181.172 14.8527 181.172 18.8182ZM173.378 18.8182C173.378 16.2495 172.993 14.0833 172.224 12.3196C171.466 10.5559 170.395 9.21828 169.01 8.30682C167.625 7.39536 166.003 6.93963 164.145 6.93963C162.286 6.93963 160.665 7.39536 159.28 8.30682C157.895 9.21828 156.818 10.5559 156.048 12.3196C155.291 14.0833 154.912 16.2495 154.912 18.8182C154.912 21.3868 155.291 23.553 156.048 25.3168C156.818 27.0805 157.895 28.4181 159.28 29.3295C160.665 30.241 162.286 30.6967 164.145 30.6967C166.003 30.6967 167.625 30.241 169.01 29.3295C170.395 28.4181 171.466 27.0805 172.224 25.3168C172.993 23.553 173.378 21.3868 173.378 18.8182ZM209.328 0.636363H217.017V24.2514C217.017 26.9029 216.383 29.223 215.117 31.2116C213.862 33.2003 212.104 34.7509 209.843 35.8636C207.583 36.9645 204.949 37.5149 201.942 37.5149C198.924 37.5149 196.284 36.9645 194.023 35.8636C191.762 34.7509 190.004 33.2003 188.75 31.2116C187.495 29.223 186.868 26.9029 186.868 24.2514V0.636363H194.556V23.5945C194.556 24.9794 194.858 26.2105 195.461 27.2876C196.077 28.3648 196.941 29.2112 198.054 29.8267C199.166 30.4422 200.462 30.75 201.942 30.75C203.434 30.75 204.73 30.4422 205.831 29.8267C206.943 29.2112 207.801 28.3648 208.405 27.2876C209.021 26.2105 209.328 24.9794 209.328 23.5945V0.636363Z" fill="white"/>
</svg>
