<svg width="78" height="92" viewBox="0 0 78 92" fill="none" xmlns="http://www.w3.org/2000/svg">
<path d="M78 25.5478C77.9738 25.426 77.9738 25.3001 78 25.1783C77.9776 25.0717 77.9776 24.9616 78 24.855V24.4393L77.7229 23.7464C77.6103 23.5574 77.4702 23.3861 77.3072 23.2384L76.8915 22.8688H76.6605L58.4622 11.3679L41.2801 0.744511C40.8825 0.42918 40.4277 0.193897 39.9406 0.0516811H39.5711C39.1582 -0.017227 38.7368 -0.017227 38.324 0.0516811H37.8621C37.3256 0.17035 36.8112 0.372997 36.3379 0.652133L1.835 22.1298L1.41931 22.4531L1.00361 22.8227L0.541723 23.146L0.31078 23.4231L0.0336476 24.1159V24.5316V24.8088C-0.0112159 25.1151 -0.0112159 25.4263 0.0336476 25.7325V66.0552C0.0320769 66.8401 0.230578 67.6125 0.61041 68.2995C0.990243 68.9864 1.53887 69.5652 2.20451 69.9812L36.846 91.4127L37.5388 91.6899H37.9083C38.6897 91.9377 39.5287 91.9377 40.3101 91.6899H40.6796L41.3724 91.4127L75.7368 70.3045C76.4024 69.8885 76.951 69.3097 77.3309 68.6228C77.7107 67.9359 77.9092 67.1635 77.9076 66.3785V26.0559C77.9076 26.0559 78 25.7325 78 25.5478ZM38.7859 10.0746L47.0075 15.1554L21.188 31.1366L12.9203 26.0559L38.7859 10.0746ZM34.167 79.3575L8.76329 63.8381V34.3236L34.167 50.0277V79.3575ZM38.7859 41.8986L29.9639 36.5869L55.7833 20.5594L64.6515 26.0559L38.7859 41.8986ZM68.8085 63.6996L43.4047 79.4961V50.0277L68.8085 34.3236V63.6996Z" fill="white"/>
</svg>
