<svg width="23" height="23" viewBox="0 0 23 23" fill="none" xmlns="http://www.w3.org/2000/svg">
<path fill-rule="evenodd" clip-rule="evenodd" d="M0.87868 3.00002C1.44129 2.43741 2.20435 2.12134 3 2.12134H10C10.5523 2.12134 11 2.56905 11 3.12134C11 3.67362 10.5523 4.12134 10 4.12134H3C2.73478 4.12134 2.48043 4.22669 2.29289 4.41423C2.10536 4.60177 2 4.85612 2 5.12134V19.1213C2 19.3866 2.10536 19.6409 2.29289 19.8284C2.48043 20.016 2.73478 20.1213 3 20.1213H17C17.2652 20.1213 17.5196 20.016 17.7071 19.8284C17.8946 19.6409 18 19.3866 18 19.1213V12.1213C18 11.5691 18.4477 11.1213 19 11.1213C19.5523 11.1213 20 11.5691 20 12.1213V19.1213C20 19.917 19.6839 20.68 19.1213 21.2427C18.5587 21.8053 17.7957 22.1213 17 22.1213H3C2.20435 22.1213 1.44129 21.8053 0.87868 21.2427C0.31607 20.68 0 19.917 0 19.1213V5.12134C0 4.32569 0.31607 3.56263 0.87868 3.00002Z" fill="#5E75EC"/>
<path fill-rule="evenodd" clip-rule="evenodd" d="M19 2C18.7026 2 18.4174 2.11814 18.2071 2.32843L8.90299 11.6326L8.37439 13.747L10.4888 13.2184L19.7929 3.91421C20.0032 3.70392 20.1213 3.41871 20.1213 3.12132C20.1213 2.82393 20.0032 2.53872 19.7929 2.32843C19.5826 2.11814 19.2974 2 19 2ZM16.7929 0.914214C17.3783 0.328852 18.1722 0 19 0C19.8278 0 20.6218 0.328852 21.2071 0.914214C21.7925 1.49957 22.1213 2.29349 22.1213 3.12132C22.1213 3.94915 21.7925 4.74307 21.2071 5.32843L11.7071 14.8284C11.579 14.9566 11.4184 15.0475 11.2426 15.0915L7.24256 16.0915C6.90178 16.1767 6.54129 16.0768 6.29291 15.8284C6.04453 15.58 5.94468 15.2196 6.02988 14.8788L7.02988 10.8788C7.07384 10.703 7.16476 10.5424 7.29291 10.4142L16.7929 0.914214Z" fill="#5E75EC"/>
</svg>
