<svg width="51" height="28" viewBox="0 0 51 28" fill="none" xmlns="http://www.w3.org/2000/svg">
<path d="M20.7375 21.5483V26.5831H1.54175V21.5826C1.54175 21.5483 1.57605 21.5097 1.61465 21.4754L5.53444 19.2839L8.4121 23.3838C8.66511 23.7054 9.094 23.817 9.49283 23.491L11.2898 21.8742L13.0867 23.491C13.4083 23.7783 13.8758 23.744 14.1631 23.3838L17.0022 19.3911L20.6689 21.4411C20.7032 21.4754 20.7375 21.5097 20.7375 21.5483Z" fill="#C3C3C3"/>
<path d="M15.887 6.30235V7.85051C14.6991 7.23727 13.048 6.84268 11.1781 6.84268C9.29117 6.84268 7.65293 7.22864 6.46924 7.82908V6.30235C6.46924 5.80056 6.75655 5.36743 7.22404 5.15302L10.2818 3.78498C10.8565 3.53196 11.504 3.53196 12.0444 3.78498L15.1365 5.15302C15.5996 5.3675 15.887 5.80063 15.887 6.30235Z" fill="#C3C3C3"/>
<path d="M6.04993 9.72917H16.133C15.3631 9.01006 13.4558 8.38477 11.0718 8.38477C8.72711 8.38477 6.81984 9.00613 6.04993 9.72917Z" fill="#C3C3C3"/>
<path d="M21.3811 20.1453L15.3485 16.8456V15.9233C16.2879 14.7515 16.8308 13.1566 16.973 11.2401H17.2272C17.6237 11.2401 17.9512 10.9229 17.9512 10.5294C17.9512 9.99637 17.7357 9.50137 17.3737 9.04021V6.41736C17.3737 5.35126 16.7231 4.39518 15.7492 3.9721L12.6382 2.62684C11.6988 2.23767 10.6173 2.23767 9.67793 2.62684L6.57115 3.97636C5.55853 4.40362 4.94664 5.35971 4.94664 6.42161V9.08262C4.58471 9.50988 4.40374 10.0049 4.40374 10.5379C4.40374 10.9271 4.72688 11.2486 5.12768 11.2486H5.27418C5.42069 13.0212 5.99812 14.5822 6.89869 15.7541V16.8202L0.792857 20.1453C0.288682 20.4288 0 20.9238 0 21.4949V27.168C0 27.5572 0.323142 27.8787 0.723936 27.8787H21.4588C21.8553 27.8787 22.1827 27.5614 22.1827 27.168V21.4949C22.1783 20.928 21.8508 20.3949 21.3811 20.1453ZM15.6373 18.6562L13.3621 21.8121L12.3495 20.9237L15.2021 18.4065L15.6373 18.6562ZM13.9783 17.5943L11.1947 20.0396L8.23439 17.4844C8.26885 17.4125 8.30764 17.3067 8.30764 17.2348V17.091C9.13929 17.624 10.0787 17.9413 11.0913 17.9413C12.1383 17.9413 13.0777 17.6579 13.8749 17.1967V17.2306C13.8706 17.3828 13.905 17.4886 13.9783 17.5943ZM7.14851 5.28779L10.2208 3.93827C10.7983 3.68868 11.4489 3.68868 11.9918 3.93827L15.0986 5.28779C15.5683 5.49929 15.857 5.92662 15.857 6.42154V7.94454C14.6634 7.33961 13.0045 6.95037 11.1257 6.95037C9.22981 6.95037 7.58377 7.3311 6.39445 7.92759V6.42154C6.39012 5.92662 6.67887 5.49936 7.14851 5.28779ZM11.1602 8.37187C13.4741 8.37187 15.3873 9.04453 16.1112 9.82714H6.17469C6.93309 9.04447 8.81181 8.37187 11.1602 8.37187ZM6.67886 11.2443H15.4951C15.2797 13.8334 14.0515 16.5282 11.087 16.5282C8.73856 16.5283 6.96755 14.2946 6.67886 11.2443ZM7.0408 18.3728L10.0399 20.928L9.02724 21.8164L6.71333 18.5547L7.0408 18.3728ZM20.7305 26.4234H1.44341V21.4949C1.44341 21.461 1.47787 21.4229 1.51666 21.3891L5.45509 19.2273L8.34643 23.2717C8.60065 23.589 9.03158 23.699 9.4323 23.3775L11.2378 21.7825L13.0433 23.3775C13.3664 23.6609 13.8361 23.627 14.1291 23.2717L16.9817 19.3331L20.6659 21.3553C20.7003 21.3891 20.7391 21.4272 20.7391 21.461V26.4234H20.7305Z" fill="#C3C3C3"/>
<path d="M34.7476 19.2133V24.2481H15.5519V19.2476C15.5519 19.2133 15.5862 19.1747 15.6248 19.1404L19.5446 16.949L22.4222 21.0489C22.6752 21.3705 23.1041 21.482 23.503 21.1561L25.2999 19.5393L27.0968 21.1561C27.4184 21.4434 27.8859 21.4091 28.1732 21.0489L31.0123 17.0562L34.679 19.1061C34.7133 19.1404 34.7476 19.1747 34.7476 19.2133Z" fill="#C3C3C3"/>
<path d="M29.897 3.96739V5.51555C28.7091 4.90231 27.058 4.50772 25.1881 4.50772C23.3012 4.50772 21.6629 4.89368 20.4792 5.49412V3.96739C20.4792 3.4656 20.7666 3.03247 21.2341 2.81806L24.2918 1.45002C24.8665 1.197 25.5141 1.197 26.0545 1.45002L29.1465 2.81806C29.6096 3.03254 29.897 3.46567 29.897 3.96739Z" fill="#C3C3C3"/>
<path d="M20.0599 7.39421H30.143C29.3731 6.6751 27.4658 6.0498 25.0818 6.0498C22.7371 6.0498 20.8299 6.67117 20.0599 7.39421Z" fill="#C3C3C3"/>
<path d="M35.3912 17.8104L29.3586 14.5106V13.5884C30.298 12.4165 30.8409 10.8216 30.9831 8.90517H31.2374C31.6338 8.90517 31.9613 8.58791 31.9613 8.19442C31.9613 7.66141 31.7459 7.16641 31.3839 6.70525V4.0824C31.3839 3.0163 30.7332 2.06022 29.7594 1.63714L26.6483 0.291881C25.709 -0.0972938 24.6274 -0.0972938 23.6881 0.291881L20.5813 1.6414C19.5687 2.06866 18.9568 3.02474 18.9568 4.08665V6.74766C18.5948 7.17492 18.4139 7.66991 18.4139 8.20293C18.4139 8.5921 18.737 8.91368 19.1378 8.91368H19.2843C19.4308 10.6863 20.0083 12.2473 20.9088 13.4191V14.4852L14.803 17.8104C14.2988 18.0938 14.0101 18.5888 14.0101 19.1599V24.833C14.0101 25.2223 14.3333 25.5438 14.7341 25.5438H35.4689C35.8654 25.5438 36.1929 25.2264 36.1929 24.833V19.1599C36.1884 18.593 35.8609 18.06 35.3912 17.8104ZM29.6474 16.3212L27.3723 19.4772L26.3596 18.5887L29.2122 16.0716L29.6474 16.3212ZM27.9884 15.2594L25.2048 17.7046L22.2445 15.1494C22.279 15.0775 22.3178 14.9718 22.3178 14.8999V14.756C23.1494 15.289 24.0888 15.6063 25.1014 15.6063C26.1485 15.6063 27.0878 15.3229 27.885 14.8618V14.8956C27.8807 15.0478 27.9152 15.1536 27.9884 15.2594ZM21.1586 2.95283L24.231 1.60331C24.8084 1.35372 25.459 1.35372 26.002 1.60331L29.1087 2.95283C29.5784 3.16433 29.8671 3.59166 29.8671 4.08658V5.60958C28.6736 5.00465 27.0146 4.61541 25.1359 4.61541C23.2399 4.61541 21.5939 4.99614 20.4046 5.59263V4.08658C20.4002 3.59166 20.689 3.1644 21.1586 2.95283ZM25.1703 6.03691C27.4842 6.03691 29.3974 6.70957 30.1214 7.49218H20.1848C20.9432 6.70951 22.8219 6.03691 25.1703 6.03691ZM20.689 8.90936H29.5052C29.2898 11.4984 28.0617 14.1932 25.0971 14.1932C22.7487 14.1933 20.9777 11.9596 20.689 8.90936ZM21.0509 16.0378L24.05 18.593L23.0374 19.4814L20.7235 16.2197L21.0509 16.0378ZM34.7406 24.0884H15.4535V19.1599C15.4535 19.1261 15.488 19.088 15.5268 19.0541L19.4652 16.8924L22.3566 20.9367C22.6108 21.254 23.0417 21.364 23.4424 21.0425L25.2479 19.4476L27.0534 21.0425C27.3765 21.3259 27.8462 21.2921 28.1393 20.9367L30.9918 16.9981L34.676 19.0203C34.7105 19.0541 34.7493 19.0922 34.7493 19.1261V24.0884H34.7406Z" fill="#C3C3C3"/>
<path d="M48.758 21.5483V26.5831H29.5623V21.5826C29.5623 21.5483 29.5966 21.5097 29.6352 21.4754L33.5549 19.2839L36.4326 23.3838C36.6856 23.7054 37.1145 23.817 37.5133 23.491L39.3103 21.8742L41.1072 23.491C41.4288 23.7783 41.8963 23.744 42.1836 23.3838L45.0227 19.3911L48.6894 21.4411C48.7237 21.4754 48.758 21.5097 48.758 21.5483Z" fill="#C3C3C3"/>
<path d="M43.9074 6.30235V7.85051C42.7195 7.23727 41.0683 6.84268 39.1985 6.84268C37.3116 6.84268 35.6733 7.22864 34.4896 7.82908V6.30235C34.4896 5.80056 34.7769 5.36743 35.2444 5.15302L38.3022 3.78498C38.8769 3.53196 39.5244 3.53196 40.0648 3.78498L43.1569 5.15302C43.62 5.3675 43.9074 5.80063 43.9074 6.30235Z" fill="#C3C3C3"/>
<path d="M34.0703 9.72917H44.1534C43.3835 9.01006 41.4762 8.38477 39.0922 8.38477C36.7475 8.38477 34.8402 9.00613 34.0703 9.72917Z" fill="#C3C3C3"/>
<path d="M49.4013 20.1453L43.3688 16.8456V15.9233C44.3081 14.7515 44.851 13.1566 44.9933 11.2401H45.2475C45.644 11.2401 45.9714 10.9229 45.9714 10.5294C45.9714 9.99637 45.756 9.50137 45.394 9.04021V6.41736C45.394 5.35126 44.7433 4.39518 43.7695 3.9721L40.6585 2.62684C39.7191 2.23767 38.6376 2.23767 37.6982 2.62684L34.5914 3.97636C33.5788 4.40362 32.9669 5.35971 32.9669 6.42161V9.08262C32.605 9.50988 32.424 10.0049 32.424 10.5379C32.424 10.9271 32.7471 11.2486 33.1479 11.2486H33.2944C33.441 13.0212 34.0184 14.5822 34.919 15.7541V16.8202L28.8131 20.1453C28.3089 20.4288 28.0203 20.9238 28.0203 21.4949V27.168C28.0203 27.5572 28.3434 27.8787 28.7442 27.8787H49.4791C49.8755 27.8787 50.203 27.5614 50.203 27.168V21.4949C50.1985 20.928 49.8711 20.3949 49.4013 20.1453ZM43.6575 18.6562L41.3824 21.8121L40.3698 20.9237L43.2223 18.4065L43.6575 18.6562ZM41.9985 17.5943L39.2149 20.0396L36.2546 17.4844C36.2891 17.4125 36.3279 17.3067 36.3279 17.2348V17.091C37.1596 17.624 38.0989 17.9413 39.1115 17.9413C40.1586 17.9413 41.098 17.6579 41.8952 17.1967V17.2306C41.8908 17.3828 41.9253 17.4886 41.9985 17.5943ZM35.1688 5.28779L38.2411 3.93827C38.8185 3.68868 39.4691 3.68868 40.0121 3.93827L43.1189 5.28779C43.5885 5.49929 43.8773 5.92662 43.8773 6.42154V7.94454C42.6837 7.33961 41.0247 6.95037 39.146 6.95037C37.2501 6.95037 35.604 7.3311 34.4147 7.92759V6.42154C34.4104 5.92662 34.6991 5.49936 35.1688 5.28779ZM39.1805 8.37187C41.4944 8.37187 43.4076 9.04453 44.1315 9.82714H34.195C34.9533 9.04447 36.8321 8.37187 39.1805 8.37187ZM34.6991 11.2443H43.5153C43.2999 13.8334 42.0718 16.5282 39.1073 16.5282C36.7588 16.5283 34.9878 14.2946 34.6991 11.2443ZM35.0611 18.3728L38.0601 20.928L37.0475 21.8164L34.7336 18.5547L35.0611 18.3728ZM48.7507 26.4234H29.4637V21.4949C29.4637 21.461 29.4981 21.4229 29.5369 21.3891L33.4753 19.2273L36.3667 23.2717C36.6209 23.589 37.0518 23.699 37.4526 23.3775L39.258 21.7825L41.0635 23.3775C41.3867 23.6609 41.8564 23.627 42.1494 23.2717L45.0019 19.3331L48.6861 21.3553C48.7206 21.3891 48.7594 21.4272 48.7594 21.461V26.4234H48.7507Z" fill="#C3C3C3"/>
</svg>
