<svg width="656" height="188" viewBox="0 0 656 188" fill="none" xmlns="http://www.w3.org/2000/svg">
<path d="M306.15 72.6917H265.03C264.767 72.7116 264.503 72.7116 264.24 72.6917C263.16 72.5517 262.89 71.9117 263.5 70.9417C264.11 69.9717 264.7 69.1416 265.26 68.2116C268.467 62.9316 271.667 57.6483 274.86 52.3616C276.48 49.6916 278.17 47.0616 279.77 44.3616C283.31 38.3616 286.77 32.4216 290.36 26.4916C292.76 22.4916 295.3 18.6216 297.73 14.6616C299.39 11.9516 300.96 9.18165 302.58 6.45165C303.69 4.59165 304.79 2.74165 305.96 0.91165C306.221 0.545172 306.598 0.277414 307.03 0.151651C307.817 0.022725 308.614 -0.0241933 309.41 0.0116505C315.13 0.0116505 320.84 0.121651 326.55 0.131651C337.71 0.131651 348.88 0.131651 360.04 0.131651C368.38 0.131651 376.72 0.291651 385.04 0.351651C386.87 0.351651 388.71 0.231651 390.55 0.201651C391.25 0.201651 392.2 -0.00834954 392.43 0.79165C392.549 1.46886 392.406 2.16593 392.03 2.74165C389.74 6.55165 387.38 10.3217 385.03 14.1117C382.57 18.1117 380.12 22.135 377.68 26.1817C376.39 28.3017 375.14 30.4417 373.87 32.5717C370.93 37.4917 367.983 42.405 365.03 47.3116C362.363 51.785 359.697 56.2517 357.03 60.7117C354.83 64.3717 352.65 68.0316 350.42 71.7116C349.77 72.7716 348.62 72.8717 347.48 72.8717C344.2 72.8717 340.92 72.8117 337.64 72.8117C327.133 72.8117 316.623 72.8117 306.11 72.8117L306.15 72.6917Z" fill="#ED2F2B"/>
<path d="M413.26 155.842C411.09 155.842 408.92 155.782 406.76 155.842C404.663 155.874 402.58 155.493 400.63 154.722C398.92 154.122 397.17 153.582 395.53 152.832C390.68 150.602 387.91 146.742 386.24 141.922C384.18 135.922 384.13 129.872 384.63 123.762C384.924 119.723 385.803 115.748 387.24 111.962C389.98 104.852 394.12 98.7118 400.71 94.2318C403.436 92.3477 406.416 90.8596 409.56 89.8118C413.258 88.4675 417.165 87.7904 421.1 87.8118C424.1 87.9218 427.1 87.8118 430.16 87.8118C432.719 87.8004 435.261 88.2196 437.68 89.0518C439.498 89.5438 441.263 90.2137 442.95 91.0518C447.608 93.7262 451.073 98.0742 452.64 103.212C454.87 109.852 454.54 116.552 453.32 123.212C452.574 127.641 451.207 131.943 449.26 135.992C446.44 141.602 442.93 146.802 437.47 150.382C434.575 152.239 431.406 153.633 428.08 154.512C423.18 156.012 418.23 155.822 413.26 155.842ZM408.26 137.122C408.26 138.642 408.26 140.122 408.26 141.672C408.254 143.524 408.805 145.336 409.84 146.872C410.188 147.405 410.671 147.836 411.24 148.122C412.161 148.549 413.19 148.692 414.193 148.532C415.196 148.372 416.128 147.915 416.87 147.222C419.557 144.742 421.67 141.704 423.06 138.322C425.833 131.998 427.779 125.343 428.85 118.522C429.22 116.522 429.29 114.392 429.5 112.322C429.73 110.062 430.07 107.812 430.17 105.552C430.369 102.955 430.119 100.343 429.43 97.8318C429.285 97.3355 429.043 96.8734 428.716 96.4728C428.389 96.0722 427.985 95.7413 427.528 95.4997C427.071 95.2582 426.57 95.1109 426.055 95.0666C425.54 95.0222 425.022 95.0818 424.53 95.2418C421.53 96.0018 419.87 98.2418 418.23 100.402C416.031 103.597 414.344 107.116 413.23 110.832C411.583 115.339 410.37 119.994 409.61 124.732C409.07 128.592 407.91 132.402 408.31 136.362C408.312 136.616 408.298 136.869 408.27 137.122H408.26Z" fill="#ED2F2B"/>
<path d="M255.12 113.952C255.135 120.662 253.802 127.307 251.2 133.492C249.342 138.261 246.597 142.634 243.11 146.382C238.37 151.376 232.036 154.559 225.2 155.382C220.853 155.963 216.462 156.16 212.08 155.972C209.062 155.96 206.051 155.685 203.08 155.152C195.55 153.642 189.95 149.982 187.3 142.752C185.618 137.908 184.908 132.78 185.21 127.662C185.52 119.552 187.21 111.762 191.57 104.662C195.599 98.0498 201.756 93.0038 209.03 90.3517C213.687 88.5829 218.64 87.7241 223.62 87.8217C226.76 87.9017 229.94 87.6817 233.05 88.0017C239.26 88.6517 244.9 90.6217 249.15 95.3717C251.336 97.9524 252.939 100.975 253.85 104.232C254.824 107.376 255.254 110.663 255.12 113.952ZM231.2 105.382H230.94V101.212C230.962 99.7416 230.593 98.292 229.87 97.0117C229.554 96.3261 229.026 95.7609 228.362 95.4005C227.699 95.04 226.937 94.9037 226.19 95.0117C224.509 95.2607 222.956 96.0547 221.77 97.2717C219.716 99.2066 218.059 101.523 216.89 104.092C214.861 108.103 213.311 112.339 212.27 116.712C211.27 120.992 210.45 125.332 209.68 129.712C209.35 131.572 209.42 133.492 209.18 135.362C208.935 138.194 209.046 141.047 209.51 143.852C209.679 144.848 210.039 145.802 210.57 146.662C211.016 147.505 211.76 148.151 212.658 148.473C213.555 148.794 214.54 148.769 215.42 148.402C217.091 147.869 218.564 146.848 219.65 145.472C221.59 143.02 223.153 140.294 224.29 137.382C227.321 130.248 229.305 122.713 230.18 115.012C230.56 111.772 230.87 108.582 231.2 105.382Z" fill="black"/>
<path d="M279.47 155.212C271.55 155.002 263.8 155.332 255.89 155.112C260.8 132.882 265.64 110.942 270.53 88.7916C271.17 88.7316 271.85 88.6016 272.53 88.5916C281.8 88.5916 291.06 88.4916 300.32 88.5916C304.906 88.5086 309.477 89.1361 313.87 90.4516C317.77 91.7616 320.87 94.0616 322.44 97.7616C323.981 101.186 324.275 105.043 323.27 108.662C322.657 111.19 321.623 113.597 320.21 115.782C317.982 118.913 314.904 121.342 311.34 122.782C310.45 123.182 309.55 123.522 308.44 123.982C310.23 129.272 312.56 134.322 314.56 139.482C316.56 144.642 318.78 149.742 320.68 154.952C320.28 155.142 320.11 155.302 319.94 155.302C312.59 155.302 305.24 155.212 297.94 155.242C297.493 155.282 297.048 155.151 296.694 154.874C296.341 154.597 296.107 154.195 296.04 153.752C294.89 150.212 293.71 146.672 292.54 143.132C290.8 137.852 289.07 132.562 287.31 127.282C287.096 126.909 286.826 126.572 286.51 126.282C285.8 127.282 283.25 137.852 282.72 140.572C281.76 145.362 280.6 150.132 279.47 155.212ZM287.35 119.422C290.05 119.342 292.51 119.842 294.92 118.992C295.659 118.731 296.339 118.327 296.92 117.802C298.608 116.315 299.926 114.456 300.77 112.372C302.469 108.344 303.04 103.929 302.42 99.6016C302.331 98.6863 301.93 97.8296 301.283 97.1757C300.637 96.5218 299.784 96.1107 298.87 96.0116C296.831 95.9061 294.789 95.9061 292.75 96.0116C290.95 103.802 289.19 111.452 287.35 119.422Z" fill="black"/>
<path d="M526.84 88.6816C526.43 91.0316 526.15 93.0816 525.7 95.1016C524.63 99.9716 523.45 104.822 522.36 109.692C521.36 114.252 520.44 118.832 519.42 123.382C518.42 127.632 517.6 131.912 516.42 136.082C515.028 141.242 512.102 145.859 508.03 149.322C506.038 150.875 503.818 152.112 501.45 152.992C498.727 154.09 495.909 154.933 493.03 155.512C491.94 155.724 490.831 155.831 489.72 155.832C486.37 155.832 483.02 155.752 479.67 155.832C476.594 155.828 473.532 155.404 470.57 154.572C467.413 153.787 464.537 152.135 462.27 149.802C460.328 147.844 459.181 145.236 459.05 142.482C458.724 137.438 459.204 132.375 460.47 127.482C461.29 124.182 461.81 120.812 462.47 117.482C462.72 116.242 463.04 115.022 463.33 113.792C464.58 108.442 465.84 103.102 467.07 97.7916C467.69 95.0916 468.25 92.3716 468.85 89.6616C468.951 89.3477 469.071 89.0404 469.21 88.7416H493.45C493.516 89.3699 493.516 90.0033 493.45 90.6316C492.53 94.5616 491.5 98.4716 490.62 102.412C489.69 106.542 488.92 110.692 488.01 114.822C487.41 117.532 486.68 120.212 486.01 122.912C485.65 124.452 485.38 126.002 485.01 127.552C484.35 130.632 483.59 133.702 483.01 136.802C482.3 140.892 483.8 143.532 487.48 145.582C488.669 146.266 490.032 146.585 491.4 146.502C492.32 146.452 493.24 146.502 494.16 146.502C496.115 146.634 498.067 146.224 499.804 145.317C501.54 144.41 502.992 143.041 504 141.362C505.188 139.508 506.088 137.485 506.67 135.362C507.89 130.922 508.88 126.362 509.86 121.902C510.8 117.582 511.57 113.232 512.47 108.902C513.01 106.302 513.67 103.732 514.24 101.152C514.77 98.7416 515.24 96.3316 515.77 93.9216C516.13 92.2716 516.55 90.6316 516.98 88.8116C520.22 88.5416 523.38 88.6016 526.84 88.6816Z" fill="#ED2F2B"/>
<path d="M334.75 155.012C335.56 151.662 336.3 148.732 336.97 145.792C337.48 143.572 337.86 141.332 338.35 139.122C339.02 136.122 339.7 133.122 340.45 130.122C340.749 128.963 340.721 127.745 340.37 126.602C339.37 122.902 338.44 119.152 337.44 115.442C336.6 112.332 335.66 109.252 334.82 106.152C333.47 101.152 332.18 96.1516 330.82 91.1516C330.82 91.0916 330.82 91.0216 330.82 90.9616C330.15 88.6216 330.15 88.6216 332.77 88.6216H353.86C354.19 88.6216 354.52 88.6216 354.86 88.6216C355.079 88.5687 355.307 88.5643 355.528 88.6086C355.75 88.6529 355.958 88.7449 356.14 88.8782C356.322 89.0115 356.473 89.1829 356.581 89.3804C356.69 89.5778 356.755 89.7967 356.77 90.0216C357.47 93.0916 358.29 96.1416 359.14 99.1716C359.99 102.202 360.91 105.102 361.78 108.072C362.37 110.072 362.92 112.072 363.6 114.412C364.262 113.73 364.873 113.001 365.43 112.232C370.043 104.798 374.623 97.3549 379.17 89.9016C379.379 89.4688 379.715 89.1103 380.133 88.8742C380.551 88.6382 381.032 88.5361 381.51 88.5816C384.4 88.6516 387.29 88.5816 390.18 88.5816C390.368 88.5754 390.555 88.6107 390.728 88.685C390.901 88.7593 391.055 88.8709 391.18 89.0116C391.31 89.2416 391.18 89.7216 390.97 90.0116C389.24 92.6116 387.46 95.1716 385.73 97.7616C383.1 101.682 380.5 105.622 377.88 109.552C374.73 114.272 371.59 119.002 368.42 123.712C367.21 125.512 365.94 127.282 364.72 129.072C364.394 129.465 364.137 129.912 363.96 130.392C363.38 132.782 362.87 135.192 362.33 137.592C361.85 139.752 361.33 141.902 360.9 144.062C360.59 145.542 360.36 147.062 360.07 148.532C359.73 150.325 359.373 152.112 359 153.892C358.947 154.317 358.731 154.706 358.397 154.974C358.063 155.243 357.637 155.371 357.21 155.332H356.21C349.97 155.332 343.73 155.332 337.49 155.332C336.572 155.272 335.657 155.166 334.75 155.012Z" fill="#ED2F2B"/>
<path d="M160.95 115.712H179.23C179.282 116.32 179.282 116.933 179.23 117.542C178.91 119.222 178.53 120.882 178.16 122.542C177.87 123.792 177.42 124.062 175.96 124.052C170.9 124.052 165.843 124.052 160.79 124.052C159.22 124.052 159.13 124.202 158.79 125.742C157.79 130.422 156.64 135.082 155.61 139.742C154.92 142.882 154.36 146.042 153.69 149.182C153.34 150.852 152.9 152.502 152.48 154.182C152.27 155.022 151.84 155.302 150.81 155.302C143.86 155.232 136.9 155.302 129.95 155.302C129.509 155.242 129.078 155.121 128.67 154.942C133.55 132.842 138.4 110.882 143.3 88.7316C143.97 88.7316 144.67 88.6016 145.37 88.6016H186.94C187.33 88.6016 187.73 88.6016 188.12 88.6016C188.95 88.6016 189.26 89.0416 189.05 89.8616C188.57 91.7516 188.05 93.6516 187.69 95.5616C187.48 96.5616 187.01 96.7716 185.93 96.7616C179.3 96.6816 172.67 96.7616 166.04 96.7616C165.746 96.802 165.455 96.8655 165.17 96.9516C163.79 103.012 162.41 109.162 160.95 115.712Z" fill="black"/>
<path d="M385.46 171.112C387.46 170.832 387.57 170.852 388.4 172.282C390.4 175.682 392.34 179.112 394.32 182.532C394.623 182.953 394.957 183.351 395.32 183.722V171.332C397.19 170.452 397.68 170.692 397.69 172.712C397.69 177.202 397.69 181.712 397.69 186.182C397.69 186.552 397.64 186.922 397.61 187.262C395.77 187.932 395.35 187.812 394.52 186.402C392.407 182.775 390.29 179.148 388.17 175.522C387.845 175.113 387.484 174.735 387.09 174.392C387.297 175.436 387.447 176.491 387.54 177.552C387.59 180.462 387.54 183.372 387.54 186.282C387.54 187.402 387.17 187.712 386.2 187.662C385.57 187.662 385.2 187.372 385.2 186.742C385.2 186.682 385.2 186.622 385.2 186.562C385.2 181.502 385.25 176.442 385.29 171.392C385.3 171.332 385.36 171.282 385.46 171.112Z" fill="black"/>
<path d="M462.56 170.922C465.31 171.142 467.84 170.562 470.35 171.522C471.426 171.863 472.394 172.48 473.157 173.312C473.92 174.143 474.452 175.16 474.7 176.262C475.324 178.529 475.205 180.937 474.36 183.132C473.948 184.152 473.297 185.059 472.462 185.776C471.627 186.493 470.631 186.999 469.56 187.252C467.27 187.902 464.94 187.622 462.56 187.452V170.922ZM464.86 179.102V184.392C464.86 184.962 464.86 185.532 465.61 185.752C467.97 186.472 471.56 184.662 472.27 182.312C472.912 180.319 472.912 178.175 472.27 176.182C471.992 175.25 471.428 174.429 470.659 173.835C469.889 173.241 468.952 172.904 467.98 172.872C467.59 172.872 467.19 172.872 466.8 172.872C464.89 172.722 464.88 172.722 464.87 174.602C464.85 176.082 464.86 177.592 464.86 179.102Z" fill="black"/>
<path d="M619.64 180.772C619.64 182.772 619.64 184.622 619.64 186.502C619.621 186.703 619.558 186.897 619.454 187.07C619.35 187.243 619.209 187.39 619.04 187.502C618.831 187.565 618.611 187.582 618.395 187.551C618.179 187.52 617.973 187.441 617.79 187.322C617.532 186.989 617.404 186.572 617.43 186.152C617.43 184.002 617.43 181.852 617.43 179.702V172.332C617.43 171.972 617.43 171.602 617.5 171.032C618.5 171.032 619.5 170.932 620.43 170.922C621.67 170.922 622.92 170.922 624.17 170.922C626.57 171.032 629.12 173.162 629.03 175.322C629.078 176.19 628.88 177.054 628.459 177.814C628.038 178.575 627.411 179.201 626.65 179.622L625.15 180.402L629.22 187.162C627.53 187.922 626.99 187.772 626.22 186.402C625.45 185.032 624.58 183.522 623.7 182.122C622.48 180.352 622.28 180.302 619.64 180.772ZM619.64 172.902C619.64 174.602 619.64 176.222 619.64 177.842C619.64 178.098 619.738 178.345 619.915 178.532C620.092 178.718 620.334 178.829 620.59 178.842C622.274 179.17 624.02 178.852 625.48 177.952C625.898 177.683 626.232 177.304 626.445 176.856C626.659 176.408 626.743 175.909 626.689 175.416C626.635 174.922 626.445 174.454 626.14 174.063C625.834 173.672 625.426 173.374 624.96 173.202C623.252 172.563 621.389 172.458 619.62 172.902H619.64Z" fill="black"/>
<path d="M0.440139 170.952C2.70014 171.102 5.02014 170.672 7.36014 171.342C8.66709 171.681 9.84217 172.405 10.7335 173.419C11.6248 174.434 12.1915 175.692 12.3601 177.032C12.8101 179.142 12.6078 181.339 11.7801 183.332C10.5801 186.172 8.16014 187.332 5.18014 187.632C3.89014 187.752 2.58014 187.632 1.27014 187.632C0.520139 187.632 -0.00986086 187.362 0.000139144 186.542C0.000139144 181.488 0.0368058 176.442 0.110139 171.402C0.140139 171.372 0.200139 171.322 0.440139 170.952ZM2.44014 179.152V181.802C2.44014 182.682 2.44014 183.562 2.44014 184.442C2.44014 185.132 2.55014 185.662 3.44014 185.822C4.59577 185.964 5.76824 185.783 6.82738 185.3C7.88653 184.816 8.79092 184.048 9.44014 183.082C10.3004 181.308 10.5297 179.294 10.0901 177.372C9.59014 174.322 7.71014 172.912 4.20014 172.662C2.69014 172.562 2.49014 172.782 2.47014 174.232C2.43014 175.872 2.45014 177.512 2.45014 179.152H2.44014Z" fill="black"/>
<path d="M82.8501 179.332C82.8478 176.855 83.8006 174.473 85.5101 172.682C86.2377 171.954 87.1167 171.396 88.0846 171.046C89.0525 170.697 90.0855 170.566 91.1101 170.661C92.1346 170.757 93.1255 171.077 94.0122 171.599C94.8989 172.121 95.6596 172.832 96.2401 173.682C97.4151 175.469 97.993 177.583 97.8905 179.72C97.7881 181.856 97.0107 183.905 95.6701 185.572C94.8767 186.456 93.8711 187.124 92.7482 187.513C91.6252 187.901 90.4219 187.997 89.2515 187.792C88.0811 187.587 86.9821 187.088 86.0581 186.34C85.1342 185.593 84.4156 184.623 83.9701 183.522C83.4874 182.157 83.1129 180.756 82.8501 179.332ZM85.2601 179.082C85.339 180.758 85.8118 182.392 86.6401 183.852C87.0505 184.479 87.6084 184.995 88.265 185.357C88.9215 185.718 89.6567 185.912 90.4059 185.923C91.1552 185.934 91.8956 185.761 92.5624 185.419C93.2291 185.077 93.8018 184.577 94.2301 183.962C95.1006 182.556 95.5617 180.935 95.5617 179.282C95.5617 177.628 95.1006 176.008 94.2301 174.602C93.7846 173.87 93.1303 173.289 92.3515 172.932C91.5727 172.576 90.705 172.461 89.8601 172.602C89.0834 172.668 88.3412 172.953 87.7199 173.423C87.0986 173.894 86.6236 174.532 86.3501 175.262C85.8701 176.532 85.6001 177.812 85.2601 179.082Z" fill="black"/>
<path d="M415.16 187.372V171.012C417.65 171.012 420.06 170.562 422.41 171.292C427.01 172.712 427.98 176.792 427.66 180.382C427.578 181.284 427.366 182.17 427.03 183.012C425.81 186.162 423.09 187.592 419.66 187.642C418.66 187.642 417.71 187.642 416.73 187.642C416.202 187.586 415.677 187.496 415.16 187.372ZM425.67 179.282L425.42 179.212C425.435 179.022 425.435 178.831 425.42 178.642C424.96 174.722 423.54 173.222 420.05 172.752L419.66 172.692C417.73 172.462 417.44 172.692 417.43 174.512C417.43 177.422 417.43 180.322 417.43 183.232C417.37 183.73 417.37 184.234 417.43 184.732C417.474 184.939 417.56 185.136 417.684 185.308C417.808 185.48 417.967 185.625 418.15 185.732C419.99 186.412 423.65 185.012 424.43 183.242C424.926 181.949 425.34 180.626 425.67 179.282Z" fill="black"/>
<path d="M491.75 171.082H501.66C501.75 172.642 501.66 172.782 500.55 172.842C499.17 172.902 497.79 172.842 496.41 172.842H494.08V177.842L498.75 177.962C499.01 177.962 499.35 177.782 499.51 177.882C499.9 178.132 500.4 178.462 500.51 178.882C500.64 179.422 500.19 179.822 499.56 179.812C498.44 179.812 497.33 179.732 496.21 179.732C495.51 179.732 494.81 179.852 494.03 179.912V185.332C494.537 185.539 495.068 185.683 495.61 185.762C497.19 185.812 498.76 185.812 500.34 185.762C501.92 185.712 501.94 185.632 501.73 187.682C498.413 187.826 495.091 187.776 491.78 187.532L491.75 171.082Z" fill="black"/>
<path d="M58.3301 181.492C58.3301 182.982 58.3301 184.492 58.3301 185.992C58.3301 187.762 58.1701 187.852 56.0801 187.342V171.012C59.2001 171.242 62.3501 170.292 65.3201 171.812C65.9375 172.08 66.4702 172.511 66.8613 173.059C67.2524 173.607 67.487 174.251 67.5401 174.922C67.9501 178.972 66.1101 180.642 61.3501 181.222C60.5101 181.322 59.6601 181.222 58.8101 181.282C58.7401 181.252 58.6901 181.312 58.3301 181.492ZM58.4401 179.032C60.0501 179.032 61.4401 179.112 62.7601 179.032C64.0801 178.952 65.0201 178.032 65.3701 176.382C65.5099 175.799 65.4498 175.187 65.1995 174.643C64.9492 174.099 64.5233 173.654 63.9901 173.382C62.2373 172.636 60.2902 172.478 58.4401 172.932V179.032Z" fill="black"/>
<path d="M355.88 187.212L361.59 171.072C364.05 170.782 364.08 170.842 364.77 172.812C366.35 177.332 367.99 181.812 369.6 186.352C369.681 186.636 369.738 186.927 369.77 187.222C367.97 187.932 367.46 187.692 367.05 186.122C366.88 185.452 366.63 184.802 366.41 184.122C365.91 182.632 365.57 182.412 364.04 182.462C363.13 182.462 362.22 182.462 361.31 182.462C359.81 182.522 359.67 182.632 359.22 183.972C358.96 184.752 358.76 185.552 358.46 186.312C357.87 187.882 357.53 188.012 355.88 187.212ZM365.19 180.472C364.76 179.182 364.44 178.042 364.01 176.942C363.58 175.842 363.79 174.462 362.52 173.672C362.14 174.872 361.78 175.942 361.52 177.022C361.26 178.102 360.96 179.242 360.65 180.472H365.19Z" fill="black"/>
<path d="M593.03 178.012H597.66C597.79 178.012 597.92 178.012 598.05 178.012C598.75 178.012 599.45 178.062 599.49 178.912C599.53 179.762 598.86 179.912 598.14 179.912L595.39 179.822H593.03C592.871 181.55 592.841 183.288 592.94 185.022C592.94 185.742 593.61 185.872 594.25 185.872H598.98C599.234 185.819 599.491 185.786 599.75 185.772C599.892 185.78 600.03 185.817 600.157 185.88C600.284 185.943 600.398 186.03 600.491 186.137C600.584 186.244 600.655 186.369 600.699 186.503C600.744 186.638 600.761 186.78 600.75 186.922C600.75 187.602 600.25 187.772 599.69 187.782C598.91 187.782 598.12 187.782 597.33 187.782C595.43 187.782 593.52 187.782 591.62 187.782C590.69 187.782 590.37 187.362 590.38 186.492C590.38 181.492 590.38 176.492 590.44 171.492C590.466 171.381 590.502 171.274 590.55 171.172H600.26V173.052H593.03V178.012Z" fill="black"/>
<path d="M29.1601 171.122C29.6001 171.072 30.1001 170.972 30.5901 170.962C32.9501 170.962 35.3201 170.962 37.6801 170.962C38.0139 170.909 38.3551 170.929 38.6801 171.022C38.9901 171.182 39.3601 171.502 39.3801 171.782C39.369 171.961 39.314 172.136 39.2198 172.289C39.1257 172.442 38.9953 172.57 38.8401 172.662C38.3511 172.826 37.835 172.894 37.3201 172.862C35.5001 172.862 33.6701 172.862 31.6901 172.862V177.862C33.2101 177.922 34.6901 177.982 36.1701 178.022C36.5001 178.022 36.8901 177.832 37.1701 177.952C37.5701 178.162 38.1001 178.522 38.1701 178.872C38.2401 179.222 37.8301 179.782 37.1701 179.772C35.8001 179.772 34.4201 179.772 33.0501 179.772C32.6601 179.772 32.2801 179.832 31.7501 179.872V185.392C33.5215 185.832 35.3592 185.941 37.1701 185.712C37.6201 185.712 38.0801 185.582 38.5301 185.572C38.6688 185.559 38.8086 185.576 38.9405 185.62C39.0724 185.665 39.1936 185.737 39.2962 185.831C39.3988 185.925 39.4806 186.039 39.5364 186.167C39.5922 186.295 39.6207 186.432 39.6201 186.572C39.648 186.712 39.6421 186.858 39.603 186.996C39.5638 187.134 39.4926 187.261 39.3951 187.366C39.2976 187.472 39.1766 187.552 39.0419 187.602C38.9072 187.652 38.7627 187.669 38.6201 187.652C36.8501 187.652 35.0801 187.652 33.3101 187.652C32.0201 187.652 30.7401 187.582 29.3101 187.542L29.1601 171.122Z" fill="black"/>
<path d="M263.12 171.012L264.53 170.932C264.886 170.879 265.248 170.966 265.541 171.175C265.834 171.384 266.034 171.698 266.1 172.052C267.23 175.342 268.39 178.622 269.54 181.912C270 183.222 270.45 184.542 270.92 185.852C271.15 186.492 271.65 187.202 270.6 187.572C270.19 187.665 269.76 187.604 269.391 187.401C269.023 187.199 268.741 186.868 268.6 186.472C268.32 185.572 268.02 184.672 267.82 183.752C267.58 182.632 266.82 182.402 265.82 182.452C264.784 182.512 263.746 182.512 262.71 182.452C262.327 182.371 261.928 182.442 261.597 182.652C261.267 182.861 261.031 183.191 260.94 183.572C260.658 184.542 260.324 185.497 259.94 186.432C259.36 187.782 259.24 187.802 257.44 187.192C259.28 181.922 261.16 176.582 263.12 171.012ZM264.12 173.702C263.94 176.082 262.41 178.082 262.19 180.502H266.8C266.203 178.133 265.288 175.855 264.08 173.732L264.12 173.702Z" fill="black"/>
<path d="M313.03 187.512V170.952H321.49C322.81 170.952 322.81 170.952 322.71 172.722C320.38 173.092 317.95 172.722 315.44 172.972V177.862C316.8 177.922 318.08 177.982 319.37 178.022C319.762 178.01 320.153 177.973 320.54 177.912C321.3 177.842 321.93 178.102 321.92 178.912C321.91 179.722 321.16 179.822 320.47 179.822H315.53C315.247 181.473 315.179 183.153 315.33 184.822C315.33 185.532 315.89 185.772 316.55 185.762C318.12 185.762 319.69 185.762 321.27 185.712C321.46 185.712 321.65 185.602 321.84 185.592C322.001 185.566 322.165 185.574 322.322 185.615C322.479 185.656 322.626 185.729 322.754 185.83C322.881 185.93 322.987 186.056 323.064 186.199C323.141 186.342 323.187 186.5 323.2 186.662C323.28 187.512 322.63 187.662 321.9 187.662C319.68 187.662 317.46 187.662 315.23 187.662C314.55 187.642 313.85 187.562 313.03 187.512Z" fill="black"/>
<path d="M196.03 174.092C194.82 173.092 193.62 172.322 192.03 172.622C191.519 172.685 191.021 172.823 190.55 173.032C188.94 173.872 188.71 175.482 190.13 176.592C191.042 177.209 192.017 177.725 193.04 178.132C193.86 178.522 194.75 178.772 195.55 179.132C196.424 179.549 197.135 180.245 197.569 181.11C198.004 181.976 198.138 182.961 197.95 183.912C197.73 185.332 195.85 187.392 194.32 187.552C191.98 187.792 189.58 187.982 187.52 186.452C187.417 186.373 187.311 186.299 187.2 186.232C186.47 185.822 186.13 185.232 186.64 184.502C187.15 183.772 187.84 183.982 188.46 184.502C189.066 185.051 189.792 185.452 190.581 185.671C191.369 185.889 192.198 185.921 193 185.762C194.58 185.512 195.53 184.592 195.59 183.352C195.654 182.94 195.592 182.519 195.414 182.143C195.236 181.767 194.949 181.453 194.59 181.242C193.87 180.822 193.09 180.492 192.35 180.092C190.945 179.474 189.605 178.717 188.35 177.832C185.63 175.542 187.18 171.982 189.98 171.002C191.02 170.604 192.141 170.467 193.246 170.601C194.35 170.735 195.406 171.137 196.32 171.772C197.51 172.692 197.51 173.012 196.03 174.092Z" fill="black"/>
<path d="M112.83 185.012L114.09 183.912C115.55 184.672 116.59 185.292 117.7 185.772C118.243 185.998 118.829 186.102 119.417 186.076C120.005 186.05 120.579 185.895 121.1 185.622C121.541 185.465 121.928 185.184 122.212 184.812C122.497 184.44 122.667 183.994 122.703 183.527C122.739 183.06 122.639 182.593 122.415 182.182C122.191 181.771 121.852 181.434 121.44 181.212C120.44 180.602 119.33 180.212 118.3 179.712C117.305 179.258 116.354 178.712 115.46 178.082C113.18 176.332 113.85 172.852 116.23 171.542C117.417 170.926 118.751 170.652 120.085 170.751C121.418 170.85 122.697 171.317 123.78 172.102C123.904 172.178 124.01 172.28 124.09 172.401C124.171 172.522 124.224 172.66 124.246 172.803C124.267 172.947 124.258 173.094 124.217 173.233C124.176 173.373 124.106 173.502 124.01 173.612C123.62 174.132 123.11 174.052 122.63 173.712C121.646 172.945 120.415 172.565 119.17 172.642C117.69 172.772 116.58 173.512 116.39 174.642C116.2 175.772 116.84 176.642 118.19 177.262C119.72 177.982 121.27 178.632 122.77 179.392C125.4 180.732 125.23 182.522 124.94 184.392C124.69 186.002 122.43 187.632 120.67 187.802C119.235 188.008 117.771 187.862 116.405 187.376C115.039 186.89 113.812 186.078 112.83 185.012Z" fill="black"/>
<path d="M241.25 174.012C240.722 173.505 240.093 173.115 239.403 172.869C238.714 172.622 237.98 172.524 237.25 172.582C236.666 172.58 236.097 172.76 235.62 173.097C235.143 173.434 234.783 173.911 234.59 174.462C234.36 175.462 234.83 176.392 236.12 177.042C237.73 177.872 239.42 178.552 241.05 179.352C241.69 179.654 242.238 180.121 242.638 180.704C243.039 181.287 243.278 181.966 243.33 182.672C243.394 183.773 243.067 184.862 242.407 185.746C241.746 186.629 240.795 187.251 239.72 187.502C238.396 187.88 236.999 187.928 235.651 187.642C234.304 187.356 233.047 186.745 231.99 185.862C231.896 185.775 231.812 185.678 231.74 185.572C231.676 185.462 231.625 185.344 231.59 185.222C232.44 183.972 232.5 184.002 233.64 184.582C234.674 185.112 235.751 185.554 236.86 185.902C237.464 186.058 238.1 186.048 238.698 185.872C239.297 185.696 239.837 185.36 240.26 184.902C240.507 184.651 240.695 184.35 240.811 184.019C240.928 183.687 240.97 183.334 240.935 182.985C240.899 182.635 240.787 182.298 240.607 181.997C240.426 181.695 240.182 181.438 239.89 181.242C238.89 180.632 237.77 180.242 236.73 179.732C235.742 179.258 234.783 178.724 233.86 178.132C231.36 176.422 231.72 172.542 234.92 171.202C235.991 170.703 237.176 170.496 238.352 170.603C239.529 170.71 240.657 171.127 241.62 171.812C242.85 172.722 242.81 173.082 241.25 174.012Z" fill="black"/>
<path d="M284.26 171.202C286.26 170.562 286.38 170.542 286.94 172.312C288.05 175.862 289.07 179.432 290.16 182.992C290.35 183.479 290.577 183.95 290.84 184.402H291.28C291.54 183.522 291.81 182.652 292.07 181.772C293.03 178.525 293.987 175.272 294.94 172.012C295.061 171.62 295.324 171.288 295.678 171.081C296.031 170.873 296.449 170.806 296.85 170.892C297.57 171.122 297.59 171.612 297.36 172.262C296.44 174.872 295.56 177.492 294.68 180.122C293.96 182.272 293.23 184.432 292.58 186.602C292.555 186.776 292.495 186.943 292.403 187.094C292.312 187.245 292.192 187.376 292.049 187.479C291.907 187.583 291.745 187.657 291.573 187.697C291.402 187.736 291.224 187.742 291.05 187.712C290.25 187.662 289.57 187.582 289.26 186.622C287.62 181.622 285.91 176.722 284.26 171.782C284.218 171.591 284.218 171.393 284.26 171.202Z" fill="black"/>
<path d="M568.83 184.412C569.19 183.362 569.59 182.332 569.89 181.272C570.77 178.192 571.62 175.102 572.47 172.012C572.77 170.892 573.47 170.632 575.26 171.242L569.83 187.642C569.246 187.718 568.654 187.718 568.07 187.642C567.837 187.577 567.619 187.465 567.43 187.314C567.241 187.163 567.085 186.975 566.97 186.762C565.76 183.182 564.63 179.582 563.45 175.992C562.94 174.442 562.37 172.922 561.83 171.402C563.37 170.502 564.05 170.642 564.49 172.062C565.6 175.602 566.63 179.172 567.71 182.722C567.9 183.332 568.21 183.912 568.46 184.502L568.83 184.412Z" fill="black"/>
<path d="M167.25 172.852C167.25 173.582 167.18 174.012 167.18 174.432C167.18 178.352 167.18 182.262 167.18 186.182C167.18 187.342 166.84 187.702 165.94 187.652C165.26 187.652 164.82 187.342 164.83 186.652C164.83 186.272 164.83 185.902 164.83 185.522C164.83 181.672 164.83 177.832 164.78 173.982C164.752 173.645 164.699 173.31 164.62 172.982C163.41 172.982 162.2 172.982 160.98 172.882C159.76 172.782 159.62 172.772 159.72 171.122C160.21 171.122 160.72 170.992 161.23 170.992H171.23C171.82 170.992 172.32 171.192 172.37 171.782C172.42 172.372 171.95 172.842 171.29 172.862C170.09 172.882 168.79 172.852 167.25 172.852Z" fill="black"/>
<path d="M655.42 171.122C653.99 173.912 652.68 176.582 651.24 179.182C650.621 180.285 650.319 181.538 650.37 182.802C650.37 183.872 650.37 184.952 650.37 186.022C650.37 187.712 650.11 187.862 647.99 187.292C647.99 186.112 647.9 184.862 647.99 183.622C648.106 181.911 647.691 180.207 646.8 178.742C645.54 176.472 644.32 174.162 643.1 171.872C643.014 171.646 642.954 171.411 642.92 171.172C645.13 170.762 645.14 170.752 645.92 172.522C646.7 174.292 647.47 175.982 648.28 177.702C648.522 178.106 648.797 178.491 649.1 178.852C649.46 178.222 649.75 177.762 649.98 177.292C650.74 175.752 651.53 174.222 652.22 172.662C653.03 170.902 653.03 170.882 655.42 171.122Z" fill="black"/>
<path d="M518.43 187.202V171.112L520.82 170.932V173.182C520.82 176.842 520.82 180.512 520.82 184.182C520.82 185.582 520.95 185.742 522.35 185.752C523.91 185.752 525.49 185.752 527.05 185.612C527.191 185.583 527.337 185.584 527.478 185.617C527.618 185.65 527.75 185.712 527.864 185.801C527.978 185.889 528.071 186.001 528.138 186.129C528.205 186.257 528.243 186.398 528.25 186.542C528.288 186.685 528.29 186.836 528.255 186.981C528.22 187.126 528.15 187.26 528.051 187.37C527.952 187.481 527.827 187.566 527.687 187.617C527.548 187.668 527.397 187.683 527.25 187.662C524.51 187.662 521.76 187.592 519.01 187.532C518.85 187.512 518.68 187.342 518.43 187.202Z" fill="black"/>
<path d="M141.47 171.102H143.56C143.685 171.448 143.776 171.807 143.83 172.172C143.83 176.838 143.83 181.505 143.83 186.172C143.83 186.742 143.83 187.332 143.15 187.592C142.15 187.952 141.41 187.432 141.42 186.322C141.42 182.222 141.42 178.118 141.42 174.012L141.47 171.102Z" fill="black"/>
<path d="M544.25 171.012H546.44V173.602C546.44 177.842 546.44 182.072 546.44 186.312C546.438 186.547 546.383 186.779 546.279 186.99C546.175 187.201 546.025 187.386 545.84 187.532C545.601 187.594 545.351 187.601 545.108 187.552C544.866 187.504 544.637 187.401 544.44 187.252C544.181 186.834 544.075 186.339 544.14 185.852C544.14 183.772 544.25 181.682 544.27 179.602C544.27 176.852 544.25 174.082 544.25 171.012Z" fill="black"/>
</svg>
