<svg width="399" height="69" viewBox="0 0 399 69" fill="none" xmlns="http://www.w3.org/2000/svg">
<path d="M284.61 68.0071C282.44 68.0071 280.27 67.9471 278.11 68.0071C276.023 68.0488 273.948 67.6854 272 66.9371C270.29 66.3371 268.54 65.7971 266.9 65.0471C262.05 62.8171 259.28 58.9571 257.61 54.1371C255.55 48.1371 255.5 42.0871 256 35.9771C256.298 31.9387 257.177 27.9644 258.61 24.1771C261.35 17.0671 265.49 10.9271 272.08 6.44708C274.797 4.55382 277.77 3.05869 280.91 2.00708C284.608 0.662854 288.515 -0.0143157 292.45 0.00708355C295.45 0.117084 298.45 0.00708355 301.51 0.00708355C304.063 0.0351037 306.594 0.484482 309 1.33708C310.816 1.83688 312.58 2.5065 314.27 3.33708C318.935 5.9997 322.413 10.3358 324 15.4671C326.23 22.1071 325.9 28.8071 324.68 35.4671C323.938 39.8977 322.571 44.2006 320.62 48.2471C317.8 53.8571 314.3 59.0571 308.83 62.6371C305.934 64.4941 302.766 65.8875 299.44 66.7671C294.53 68.1671 289.58 68.0071 284.61 68.0071ZM279.61 49.2871C279.61 50.7971 279.61 52.2871 279.61 53.8271C279.604 55.6827 280.154 57.4974 281.19 59.0371C281.539 59.5672 282.022 59.9951 282.59 60.2771C283.512 60.7083 284.541 60.8539 285.546 60.6953C286.551 60.5367 287.486 60.0811 288.23 59.3871C290.911 56.9036 293.02 53.8668 294.41 50.4871C297.185 44.164 299.131 37.5089 300.2 30.6871C300.57 28.6871 300.64 26.5471 300.85 24.4871C301.08 22.2271 301.42 19.9771 301.52 17.7071C301.719 15.1136 301.469 12.5053 300.78 9.99708C300.636 9.50121 300.395 9.03927 300.069 8.63875C299.743 8.23824 299.34 7.90732 298.884 7.66569C298.428 7.42406 297.928 7.27664 297.413 7.23222C296.899 7.18779 296.381 7.24726 295.89 7.40708C292.89 8.16708 291.22 10.4071 289.58 12.5671C287.381 15.7625 285.694 19.2815 284.58 22.9971C282.934 27.5012 281.722 32.1524 280.96 36.8871C280.42 40.7571 279.26 44.5671 279.66 48.5271C279.666 48.7908 279.656 49.0546 279.63 49.3171L279.61 49.2871Z" fill="#ED2F2B"/>
<path d="M126.47 26.1472C126.49 32.8578 125.157 39.5036 122.55 45.6871C120.693 50.4567 117.948 54.8307 114.46 58.5771C109.722 63.5742 103.387 66.7578 96.55 67.5771C92.2032 68.1666 87.8125 68.3674 83.43 68.1771C80.4121 68.1602 77.4012 67.8858 74.43 67.3571C66.92 65.8571 61.32 62.1971 58.67 55.0071C56.9859 50.1641 56.2789 45.0352 56.59 39.9171C56.89 31.8071 58.59 24.0171 62.94 16.9671C66.9444 10.3132 73.1006 5.22588 80.39 2.54715C85.0527 0.773883 90.0124 -0.0883675 95 0.00715026C98.14 0.0871503 101.32 -0.13285 104.44 0.18715C110.64 0.82715 116.28 2.80715 120.53 7.55715C122.718 10.1364 124.322 13.1591 125.23 16.4172C126.2 19.565 126.619 22.8566 126.47 26.1472ZM102.56 17.5772H102.29C102.29 16.1872 102.29 14.7972 102.29 13.4072C102.305 11.9429 101.932 10.5008 101.21 9.22715C100.894 8.54154 100.365 7.97637 99.7022 7.61594C99.039 7.25551 98.277 7.11913 97.53 7.22715C95.8516 7.48867 94.3038 8.28891 93.12 9.50715C91.0659 11.4421 89.4084 13.7585 88.24 16.3272C86.2127 20.3356 84.6622 24.5678 83.62 28.9372C82.62 33.2272 81.8 37.5671 81.03 41.9371C80.7 43.7971 80.77 45.7172 80.53 47.5872C80.2894 50.3966 80.4002 53.2251 80.86 56.0071C81.0315 57.0058 81.3913 57.9628 81.92 58.8271C82.3671 59.6685 83.1118 60.3129 84.0086 60.6347C84.9055 60.9564 85.89 60.9323 86.77 60.5672C88.4382 60.0397 89.911 59.0265 91 57.6572C92.943 55.208 94.5071 52.4809 95.64 49.5672C98.673 42.4194 100.66 34.8718 101.54 27.1572C101.91 24.0072 102.22 20.7672 102.56 17.5772Z" fill="black"/>
<path d="M150.82 67.4071C142.9 67.1971 135.15 67.5171 127.24 67.3071C132.15 45.0771 137 23.1371 141.88 1.00714C142.52 0.94714 143.21 0.80714 143.88 0.80714C153.14 0.80714 162.4 0.70714 171.66 0.80714C176.246 0.724226 180.816 1.35166 185.21 2.66714C189.11 3.97714 192.21 6.27714 193.78 9.97714C195.319 13.4021 195.616 17.2567 194.62 20.8771C194.004 23.4042 192.977 25.8129 191.58 28.0071C189.346 31.1371 186.265 33.5653 182.7 35.0071C181.82 35.3971 180.91 35.7471 179.8 36.2071C181.6 41.4871 183.92 46.5471 185.93 51.7071C187.94 56.8671 190.14 61.9671 192.04 67.1771C191.64 67.3671 191.47 67.5171 191.3 67.5171C183.95 67.5171 176.61 67.4371 169.3 67.5171C168.853 67.5579 168.407 67.4263 168.054 67.1493C167.701 66.8724 167.467 66.4709 167.4 66.0271C166.25 62.4871 165.07 58.9471 163.91 55.4071C162.16 50.1271 160.43 44.8371 158.67 39.5571C158.456 39.1851 158.186 38.8478 157.87 38.5571C157.16 39.5571 154.61 50.1271 154.08 52.8471C153.11 57.5571 152 62.3271 150.82 67.4071ZM158.7 31.6071C161.4 31.5371 163.87 32.0371 166.27 31.1871C167.007 30.9236 167.687 30.5195 168.27 29.9971C169.951 28.5074 171.266 26.649 172.11 24.5671C173.81 20.5359 174.38 16.1179 173.76 11.7871C173.664 10.8836 173.263 10.0397 172.623 9.39449C171.983 8.74925 171.143 8.34107 170.24 8.23714C168.202 8.11493 166.159 8.09824 164.12 8.18714C162.3 16.0071 160.54 23.6471 158.7 31.6071Z" fill="black"/>
<path d="M398.19 0.87719C397.78 3.21719 397.5 5.27719 397.05 7.29719C396 12.1672 394.8 17.0072 393.71 21.8872C392.71 26.4372 391.79 31.0172 390.77 35.5772C389.77 39.8272 388.95 44.1072 387.77 48.2772C386.385 53.4336 383.466 58.0474 379.4 61.5072C377.41 63.0671 375.191 64.3085 372.82 65.1872C370.103 66.2832 367.291 67.1267 364.42 67.7072C363.325 67.9087 362.214 68.0158 361.1 68.0272C357.75 68.0272 354.4 67.9472 351.1 68.0272C348.024 68.0286 344.962 67.608 342 66.7772C338.838 65.9978 335.961 64.3408 333.7 61.9972C331.754 60.0455 330.603 57.4402 330.47 54.6872C330.144 49.6435 330.623 44.5801 331.89 39.6872C332.71 36.3772 333.24 33.0072 333.89 29.6872C334.15 28.4472 334.46 27.2272 334.75 25.9972C336 20.6472 337.26 15.3072 338.49 9.99719C339.11 7.29719 339.67 4.57719 340.28 1.86719C340.371 1.55131 340.488 1.24357 340.63 0.94719H364.8C364.866 1.57547 364.866 2.20891 364.8 2.83719C363.88 6.76719 362.86 10.6772 361.97 14.6172C361.04 18.7372 360.27 22.8972 359.36 27.0272C358.77 29.7372 358.04 32.4172 357.36 35.1172C357 36.6572 356.73 38.2072 356.36 39.7572C355.7 42.8372 354.94 45.9072 354.36 49.0072C353.64 53.0872 355.14 55.7372 358.82 57.7872C360.008 58.4712 361.371 58.7911 362.74 58.7072C363.66 58.7072 364.58 58.7072 365.5 58.7072C367.456 58.8388 369.41 58.4287 371.148 57.5219C372.885 56.6151 374.339 55.2467 375.35 53.5672C376.535 51.6954 377.432 49.6559 378.01 47.5172C379.24 43.0672 380.22 38.5172 381.2 34.0472C382.14 29.7372 382.91 25.3872 383.81 21.0472C384.35 18.4572 385.01 15.8872 385.58 13.2972C386.11 10.8972 386.58 8.47719 387.11 6.07719C387.47 4.42719 387.89 2.77719 388.32 0.96719C391.57 0.73719 394.74 0.79719 398.19 0.87719Z" fill="#ED2F2B"/>
<path d="M206.1 67.2372C206.91 63.8872 207.66 60.9572 208.33 58.0172C208.83 55.7972 209.21 53.5572 209.7 51.3472C210.37 48.3472 211.06 45.3472 211.8 42.3472C212.097 41.1893 212.073 39.9724 211.73 38.8272C210.73 35.1172 209.79 31.3772 208.79 27.6672C207.95 24.5572 207.01 21.4772 206.17 18.3772C204.83 13.3772 203.53 8.37719 202.17 3.37719C202.165 3.31394 202.165 3.25043 202.17 3.18719C201.51 0.817185 201.51 0.807185 204.13 0.807185H225.21C225.54 0.807185 225.87 0.807185 226.21 0.807185C226.429 0.754282 226.657 0.749834 226.878 0.794152C227.099 0.838469 227.308 0.930485 227.49 1.06378C227.672 1.19708 227.822 1.36844 227.931 1.56592C228.04 1.7634 228.104 1.98225 228.12 2.20719C228.83 5.26719 229.64 8.31719 230.49 11.3572C231.34 14.3972 232.26 17.2872 233.14 20.2572C233.72 22.2572 234.27 24.2572 234.95 26.5972C235.607 25.9084 236.221 25.1804 236.79 24.4172C241.39 16.9905 245.967 9.54719 250.52 2.08719C250.73 1.66153 251.064 1.30949 251.478 1.07744C251.893 0.845387 252.367 0.744194 252.84 0.787185C255.73 0.857185 258.62 0.787185 261.51 0.787185C261.697 0.779714 261.884 0.813457 262.057 0.886031C262.229 0.958604 262.384 1.06824 262.51 1.20719C262.549 1.37918 262.55 1.55749 262.514 1.73002C262.478 1.90256 262.405 2.06529 262.3 2.20719C260.57 4.79719 258.8 7.36718 257.06 9.94718C254.43 13.8772 251.83 17.8172 249.21 21.7472C246.07 26.4672 242.92 31.1872 239.76 35.9072C238.55 37.7072 237.28 39.4772 236.05 41.2672C235.724 41.661 235.467 42.1074 235.29 42.5872C234.71 44.9772 234.2 47.3872 233.66 49.7872C233.18 51.9472 232.66 54.0972 232.23 56.2572C231.92 57.7372 231.69 59.2572 231.4 60.7272C231.06 62.5172 230.71 64.3072 230.33 66.0872C230.275 66.5098 230.059 66.8951 229.728 67.1632C229.397 67.4312 228.975 67.5616 228.55 67.5272H227.55C221.31 67.5272 215.07 67.5272 208.83 67.5272C207.916 67.4771 207.004 67.3803 206.1 67.2372Z" fill="#ED2F2B"/>
<path d="M32.31 27.9071H50.58C50.6367 28.5158 50.6367 29.1284 50.58 29.7371C50.26 31.4071 49.88 33.0671 49.51 34.7371C49.22 35.9871 48.77 36.2571 47.31 36.2471C42.25 36.2471 37.1933 36.2471 32.14 36.2471C30.57 36.2471 30.49 36.3971 30.14 37.9371C29.14 42.6171 27.99 47.2771 26.96 51.9371C26.28 55.0771 25.71 58.2371 25.04 61.3771C24.69 63.0471 24.26 64.6971 23.84 66.3771C23.62 67.2071 23.19 67.4971 22.16 67.4871C15.16 67.4271 8.26 67.4871 1.3 67.4871C0.85308 67.4231 0.416195 67.3021 0 67.1271C4.88 45.0071 9.74 23.0671 14.63 0.917109C15.3 0.867109 16 0.787109 16.7 0.787109H58.27C58.66 0.787109 59.06 0.787109 59.45 0.787109C60.29 0.787109 60.59 1.21711 60.38 2.04711C59.9 3.93711 59.38 5.83711 59.03 7.74711C58.82 8.74711 58.34 8.95711 57.27 8.94711C50.63 8.86711 44 8.94711 37.37 8.94711C37.0755 8.9875 36.7846 9.05103 36.5 9.13711C35.14 15.1771 33.77 21.3571 32.31 27.9071Z" fill="black"/>
</svg>
