<svg xmlns="http://www.w3.org/2000/svg" viewBox="0 0 129.38 72.82"><defs><style>.cls-1{fill:#ed2f2b;}</style></defs><title>foryou_icon</title><g id="Layer_2" data-name="Layer 2"><g id="Layer_1-2" data-name="Layer 1"><path class="cls-1" d="M43,72.68H1.85a5.21,5.21,0,0,1-.79,0C0,72.56-.29,71.92.32,71s1.2-1.8,1.77-2.73q4.8-7.92,9.6-15.85c1.62-2.67,3.3-5.3,4.9-8,3.55-6,7-11.94,10.59-17.87,2.4-4,4.94-7.87,7.37-11.83,1.66-2.71,3.23-5.48,4.86-8.21,1.1-1.86,2.2-3.71,3.37-5.54a2,2,0,0,1,1.16-.8A11.37,11.37,0,0,1,46.28,0C52,0,57.71.11,63.42.12c11.16,0,22.33,0,33.49,0,8.34,0,16.68.16,25,.22,1.83,0,3.67-.12,5.51-.15.7,0,1.65-.21,1.88.59a2.71,2.71,0,0,1-.38,1.92c-2.29,3.81-4.65,7.58-7,11.37q-3.69,6-7.35,12.07c-1.29,2.12-2.54,4.26-3.81,6.39Q106.4,39.94,102,47.3l-8,13.4c-2.2,3.66-4.38,7.32-6.61,11-.64,1.06-1.8,1.16-2.93,1.16-3.29,0-6.57-.06-9.85-.06q-15.76,0-31.53,0Z"/></g></g></svg>