<svg width="399" height="157" viewBox="0 0 399 157" fill="none" xmlns="http://www.w3.org/2000/svg">
<path d="M177.5 72.7008H136.33C136.067 72.7208 135.803 72.7208 135.54 72.7008C134.47 72.5608 134.19 71.9208 134.8 70.9508C135.41 69.9808 136 69.1508 136.57 68.2208C139.77 62.9408 142.97 57.6574 146.17 52.3708C147.79 49.7008 149.47 47.0708 151.07 44.3708C154.62 38.3708 158.07 32.4308 161.66 26.5008C164.06 22.5008 166.6 18.6308 169.03 14.6708C170.69 11.9608 172.26 9.19078 173.89 6.46078C174.99 4.60078 176.09 2.75078 177.26 0.920782C177.537 0.52222 177.949 0.237893 178.42 0.120782C179.194 0.00698595 179.979 -0.0265251 180.76 0.0207817C186.48 0.0207817 192.19 0.130782 197.9 0.140782C209.06 0.140782 220.23 0.140782 231.39 0.140782C239.73 0.140782 248.07 0.300782 256.39 0.360782C258.22 0.360782 260.06 0.240782 261.9 0.210782C262.6 0.210782 263.55 0.000781655 263.78 0.800782C263.897 1.46577 263.761 2.15047 263.4 2.72078C261.11 6.53078 258.75 10.3008 256.4 14.0908C253.94 18.0908 251.49 22.1141 249.05 26.1608C247.76 28.2808 246.51 30.4208 245.24 32.5508C242.3 37.4708 239.357 42.3841 236.41 47.2908L228.41 60.6908C226.21 64.3508 224.03 68.0108 221.8 71.6908C221.16 72.7508 220 72.8508 218.87 72.8508C215.58 72.8508 212.3 72.7908 209.02 72.7908C198.513 72.7908 188.003 72.7908 177.49 72.7908L177.5 72.7008Z" fill="#ED2F2B"/>
<path d="M284.61 155.851C282.44 155.851 280.27 155.791 278.11 155.851C276.013 155.883 273.93 155.502 271.98 154.731C270.27 154.131 268.52 153.591 266.88 152.841C262.03 150.611 259.26 146.751 257.59 141.931C255.53 135.931 255.48 129.881 255.98 123.771C256.279 119.733 257.158 115.758 258.59 111.971C261.33 104.861 265.47 98.7208 272.06 94.2408C274.786 92.3567 277.766 90.8686 280.91 89.8208C284.608 88.4766 288.515 87.7994 292.45 87.8208C295.45 87.9308 298.45 87.8208 301.51 87.8208C304.063 87.8436 306.595 88.2932 309 89.1508C310.817 89.6462 312.582 90.316 314.27 91.1508C318.936 93.8119 322.415 98.1486 324 103.281C326.23 109.921 325.9 116.621 324.68 123.281C323.938 127.711 322.571 132.014 320.62 136.061C317.8 141.671 314.3 146.871 308.83 150.451C305.936 152.312 302.767 153.706 299.44 154.581C294.53 156.021 289.58 155.831 284.61 155.851ZM279.61 137.131C279.61 138.651 279.61 140.131 279.61 141.681C279.604 143.533 280.155 145.345 281.19 146.881C281.538 147.414 282.021 147.845 282.59 148.131C283.513 148.558 284.543 148.701 285.547 148.54C286.552 148.38 287.486 147.924 288.23 147.231C290.911 144.747 293.02 141.71 294.41 138.331C297.187 132.009 299.134 125.353 300.2 118.531C300.57 116.531 300.64 114.401 300.85 112.331C301.08 110.071 301.42 107.821 301.52 105.561C301.719 102.964 301.469 100.352 300.78 97.8408C300.635 97.3457 300.393 96.8846 300.067 96.4849C299.741 96.0851 299.338 95.7547 298.882 95.5133C298.426 95.2718 297.926 95.1242 297.413 95.0791C296.899 95.034 296.381 95.0924 295.89 95.2508C292.89 96.0108 291.22 98.2508 289.58 100.411C287.381 103.606 285.694 107.125 284.58 110.841C282.933 115.348 281.72 120.003 280.96 124.741C280.42 128.601 279.26 132.411 279.66 136.371C279.665 136.625 279.655 136.878 279.63 137.131H279.61Z" fill="#ED2F2B"/>
<path d="M126.47 113.961C126.49 120.672 125.157 127.317 122.55 133.501C120.695 138.272 117.95 142.646 114.46 146.391C109.66 151.551 103.59 154.391 96.55 155.391C92.2024 155.972 87.8121 156.169 83.43 155.981C80.4119 155.969 77.4005 155.695 74.43 155.161C66.9 153.651 61.3 149.991 58.65 142.761C56.9659 137.918 56.2589 132.789 56.57 127.671C56.87 119.561 58.57 111.771 62.92 104.671C66.9514 98.0572 73.112 93.011 80.39 90.3609C85.0534 88.591 90.013 87.7322 95 87.8309C98.14 87.9109 101.32 87.6909 104.44 88.0109C110.64 88.6609 116.28 90.6309 120.53 95.3809C122.716 97.9616 124.319 100.984 125.23 104.241C126.199 107.386 126.618 110.674 126.47 113.961ZM102.56 105.391H102.29C102.29 104.001 102.29 102.611 102.29 101.221C102.312 99.7508 101.942 98.3014 101.22 97.0209C100.907 96.3332 100.378 95.7661 99.7145 95.4053C99.0506 95.0445 98.2873 94.9095 97.54 95.0209C95.8589 95.2699 94.3061 96.0639 93.12 97.2809C91.0659 99.2158 89.4084 101.532 88.24 104.101C86.2111 108.112 84.6605 112.348 83.62 116.721C82.62 121.001 81.8 125.341 81.03 129.721C80.7 131.581 80.77 133.501 80.53 135.371C80.2845 138.204 80.3954 141.056 80.86 143.861C81.0327 144.856 81.3924 145.81 81.92 146.671C82.3671 147.512 83.1118 148.157 84.0086 148.478C84.9054 148.8 85.89 148.776 86.77 148.411C88.4419 147.875 89.9152 146.851 91 145.471C92.943 143.022 94.5071 140.295 95.64 137.381C98.6729 130.233 100.66 122.686 101.54 114.971C101.91 111.781 102.22 108.591 102.56 105.391Z" fill="black"/>
<path d="M150.82 155.221C142.9 155.011 135.15 155.341 127.24 155.121C132.15 132.891 136.99 110.951 141.88 88.8008C142.52 88.7408 143.21 88.6108 143.88 88.6008C153.14 88.6008 162.4 88.5008 171.66 88.6008C176.246 88.5179 180.816 89.1454 185.21 90.4608C189.11 91.7708 192.21 94.0708 193.78 97.7708C195.319 101.196 195.616 105.05 194.62 108.671C193.998 111.196 192.965 113.602 191.56 115.791C189.326 118.921 186.245 121.349 182.68 122.791C181.8 123.191 180.89 123.531 179.78 123.991C181.58 129.281 183.9 134.331 185.91 139.491C187.92 144.651 190.12 149.751 192.02 154.961C191.62 155.151 191.45 155.311 191.28 155.311C183.93 155.311 176.59 155.221 169.28 155.251C168.833 155.292 168.387 155.16 168.034 154.883C167.681 154.606 167.447 154.205 167.38 153.761C166.23 150.221 165.05 146.681 163.89 143.141C162.14 137.861 160.41 132.571 158.65 127.291C158.436 126.919 158.166 126.582 157.85 126.291C157.14 127.291 154.59 137.861 154.06 140.581C153.11 145.371 152 150.141 150.82 155.221ZM158.7 119.431C161.4 119.351 163.87 119.851 166.27 119.001C167.007 118.737 167.687 118.333 168.27 117.811C169.951 116.321 171.266 114.463 172.11 112.381C173.809 108.353 174.379 103.938 173.76 99.6108C173.671 98.6971 173.271 97.8416 172.627 97.1879C171.982 96.5342 171.132 96.1221 170.22 96.0208C168.181 95.9154 166.139 95.9154 164.1 96.0208C162.3 103.811 160.54 111.461 158.7 119.431Z" fill="black"/>
<path d="M398.19 88.6909C397.78 91.0409 397.5 93.0909 397.05 95.1109C395.98 99.9809 394.8 104.831 393.71 109.701C392.71 114.261 391.79 118.841 390.77 123.391C389.77 127.641 388.95 131.921 387.77 136.091C386.383 141.249 383.465 145.866 379.4 149.331C377.408 150.884 375.188 152.122 372.82 153.001C370.103 154.097 367.291 154.94 364.42 155.521C363.326 155.732 362.214 155.839 361.1 155.841C357.75 155.841 354.4 155.761 351.1 155.841C348.023 155.839 344.961 155.415 342 154.581C338.841 153.801 335.964 152.148 333.7 149.811C331.755 147.855 330.604 145.246 330.47 142.491C330.144 137.447 330.624 132.384 331.89 127.491C332.71 124.191 333.24 120.821 333.89 117.491C334.15 116.251 334.46 115.031 334.75 113.801C336 108.451 337.26 103.111 338.49 97.8009C339.11 95.1009 339.67 92.3809 340.28 89.6709C340.372 89.3556 340.49 89.048 340.63 88.7509H364.8C364.866 89.3792 364.866 90.0126 364.8 90.6409C363.88 94.5709 362.86 98.4809 361.97 102.421C361.04 106.551 360.27 110.701 359.36 114.831C358.77 117.541 358.04 120.221 357.36 122.921C357 124.461 356.73 126.011 356.36 127.561C355.7 130.641 354.94 133.711 354.36 136.811C353.64 140.901 355.14 143.541 358.82 145.591C360.008 146.275 361.371 146.595 362.74 146.511C363.66 146.461 364.58 146.511 365.5 146.511C367.456 146.643 369.41 146.232 371.148 145.326C372.885 144.419 374.339 143.05 375.35 141.371C376.531 139.515 377.427 137.492 378.01 135.371C379.24 130.931 380.22 126.371 381.2 121.911C382.14 117.591 382.91 113.241 383.81 108.911C384.35 106.311 385.01 103.741 385.58 101.161C386.11 98.7509 386.58 96.3409 387.11 93.9309C387.47 92.2809 387.89 90.6409 388.32 88.8209C391.57 88.5509 394.74 88.6109 398.19 88.6909Z" fill="#ED2F2B"/>
<path d="M206.1 155.021C206.91 151.671 207.66 148.741 208.33 145.801C208.83 143.581 209.21 141.341 209.7 139.131C210.37 136.131 211.06 133.131 211.8 130.131C212.097 128.973 212.073 127.756 211.73 126.611C210.73 122.911 209.79 119.161 208.79 115.451C207.95 112.341 207.01 109.261 206.17 106.161C204.83 101.161 203.53 96.1609 202.17 91.1609C202.165 91.0976 202.165 91.0341 202.17 90.9709C201.5 88.6309 201.5 88.6309 204.12 88.6309H225.2C225.53 88.6309 225.86 88.6309 226.2 88.6309C226.418 88.5797 226.644 88.5763 226.863 88.6208C227.082 88.6653 227.289 88.7568 227.47 88.8888C227.65 89.0209 227.8 89.1904 227.909 89.3858C228.018 89.5813 228.083 89.7979 228.1 90.0209C228.81 93.0909 229.62 96.1409 230.47 99.1709C231.32 102.201 232.24 105.101 233.12 108.071C233.7 110.071 234.25 112.071 234.93 114.411C235.592 113.726 236.206 112.998 236.77 112.231C241.37 104.798 245.947 97.3542 250.5 89.9009C250.708 89.4681 251.044 89.1095 251.463 88.8735C251.881 88.6375 252.362 88.5354 252.84 88.5809C255.73 88.6509 258.62 88.5809 261.51 88.5809C261.698 88.5747 261.885 88.61 262.058 88.6843C262.231 88.7586 262.385 88.8701 262.51 89.0109C262.64 89.2409 262.51 89.7209 262.3 90.0109C260.57 92.6109 258.8 95.1709 257.06 97.7609C254.43 101.681 251.83 105.621 249.21 109.551C246.07 114.271 242.92 118.991 239.76 123.711C238.55 125.511 237.28 127.281 236.05 129.071C235.724 129.465 235.467 129.911 235.29 130.391C234.71 132.781 234.2 135.191 233.66 137.591C233.18 139.751 232.66 141.901 232.23 144.061C231.92 145.541 231.69 147.061 231.4 148.531C231.06 150.321 230.71 152.111 230.33 153.891C230.28 154.316 230.065 154.704 229.733 154.973C229.4 155.242 228.976 155.37 228.55 155.331H227.55C221.31 155.331 215.07 155.331 208.83 155.331C207.915 155.274 207.004 155.171 206.1 155.021Z" fill="#ED2F2B"/>
<path d="M32.31 115.721H50.58C50.6367 116.33 50.6367 116.942 50.58 117.551C50.26 119.231 49.88 120.891 49.51 122.551C49.22 123.801 48.77 124.071 47.31 124.061C42.25 124.061 37.1933 124.061 32.14 124.061C30.57 124.061 30.49 124.211 30.14 125.751C29.14 130.431 27.99 135.091 26.96 139.751C26.28 142.891 25.71 146.051 25.04 149.191C24.69 150.861 24.26 152.511 23.84 154.191C23.62 155.031 23.19 155.311 22.16 155.311C15.16 155.241 8.26 155.311 1.3 155.311C0.851575 155.249 0.414028 155.124 0 154.941C4.88 132.841 9.74 110.881 14.63 88.7308C15.3 88.7308 16 88.6008 16.7 88.6008H58.27C58.66 88.6008 59.06 88.6008 59.45 88.6008C60.29 88.6008 60.59 89.0408 60.38 89.8608C59.9 91.7508 59.38 93.6508 59.03 95.5608C58.82 96.5608 58.34 96.7708 57.27 96.7608C50.63 96.6808 44 96.7608 37.37 96.7608C37.0755 96.8012 36.7846 96.8647 36.5 96.9508C35.14 103.021 33.77 109.171 32.31 115.721Z" fill="black"/>
</svg>
