<svg width="37" height="51" viewBox="0 0 37 51" fill="none" xmlns="http://www.w3.org/2000/svg">
<path d="M36.798 18.399C36.798 28.5616 23.9568 43.3493 18.399 51C12.2465 42.8222 0 28.5616 0 18.399C0 13.5193 1.93846 8.83943 5.38895 5.38895C8.83943 1.93846 13.5193 0 18.399 0C23.2787 0 27.9586 1.93846 31.4091 5.38895C34.8596 8.83943 36.798 13.5193 36.798 18.399Z" fill="#ED2F2B"/>
<path d="M11.1989 32.842C11.494 31.6187 11.7644 30.5486 12.0099 29.4627C12.1924 28.654 12.3321 27.8362 12.5101 27.0274C12.7556 25.928 13.0057 24.8309 13.2805 23.7383C13.388 23.314 13.3779 22.8685 13.2513 22.4496C12.8683 21.0979 12.5439 19.7304 12.1766 18.3742C11.8725 17.2478 11.5278 16.1214 11.2237 14.9814C10.7303 13.1544 10.2572 11.3251 9.77511 9.49574C9.77511 9.47321 9.77511 9.44843 9.77511 9.4259C9.52955 8.56982 9.52955 8.56982 10.487 8.56982H18.176C18.2954 8.56982 18.417 8.58559 18.5364 8.56982C18.9329 8.53602 19.1357 8.67119 19.2303 9.07896C19.4894 10.2054 19.7868 11.3138 20.0977 12.4222C20.4086 13.5306 20.7442 14.5894 21.0641 15.673C21.2759 16.3962 21.4787 17.1194 21.7265 17.989C21.9692 17.7385 22.195 17.472 22.4023 17.1915C24.083 14.4775 25.7553 11.7591 27.4194 9.03616C27.4962 8.88025 27.6185 8.75134 27.7702 8.66646C27.9219 8.58158 28.0957 8.54474 28.2687 8.5608C29.3231 8.58784 30.3797 8.5608 31.4227 8.5608C31.4895 8.55977 31.5558 8.57288 31.6171 8.59929C31.6785 8.62569 31.7335 8.66478 31.7787 8.714C31.7924 8.77693 31.7924 8.84207 31.7788 8.90503C31.7652 8.96799 31.7383 9.0273 31.6998 9.07896C31.069 10.0252 30.4225 10.9601 29.7894 11.9063C28.8365 13.3594 27.8903 14.7989 26.9328 16.234C25.7839 17.9567 24.6326 19.6839 23.4792 21.4156C23.0286 22.0734 22.5781 22.72 22.1275 23.3733C22.0107 23.5142 21.9179 23.6732 21.8526 23.8441C21.6409 24.7182 21.4539 25.5969 21.2579 26.4755C21.0822 27.2617 20.8997 28.0525 20.7352 28.8364C20.6226 29.3794 20.537 29.9268 20.4333 30.4698C20.3072 31.1231 20.1758 31.7764 20.0391 32.4297C20.0199 32.5872 19.9393 32.7307 19.8148 32.829C19.6904 32.9273 19.5321 32.9725 19.3745 32.9547H19.014C16.7364 32.9547 14.4565 32.9547 12.1766 32.9411C11.8883 32.9434 11.5909 32.8916 11.1989 32.842Z" fill="black"/>
</svg>
