<svg width="39" height="31" viewBox="0 0 39 31" fill="none" xmlns="http://www.w3.org/2000/svg">
<path fill-rule="evenodd" clip-rule="evenodd" d="M15.0848 3.35845C8.37914 3.35845 2.94317 8.79443 2.94317 15.5C2.94317 22.2056 8.37914 27.6416 15.0848 27.6416C19.509 27.6416 23.3823 25.2761 25.5063 21.7338C25.9243 21.0367 26.8282 20.8105 27.5253 21.2284C28.2224 21.6464 28.4487 22.5504 28.0307 23.2475C25.3969 27.6399 20.5855 30.585 15.0848 30.585C6.75354 30.585 -0.000244141 23.8312 -0.000244141 15.5C-0.000244141 7.16882 6.75354 0.415039 15.0848 0.415039C20.3775 0.415039 25.0325 3.14197 27.7226 7.2606C28.1671 7.9411 27.9758 8.85308 27.2953 9.29756C26.6148 9.74204 25.7028 9.55071 25.2583 8.8702C23.0887 5.54843 19.3421 3.35845 15.0848 3.35845Z" fill="#FA103A"/>
<path fill-rule="evenodd" clip-rule="evenodd" d="M32.1465 7.66897L38.569 14.8273C39.1437 15.402 39.1437 16.3339 38.569 16.9086L32.1465 24.0669C31.5718 24.6417 30.6399 24.6417 30.0652 24.0669C29.4904 23.4922 29.4904 22.5604 30.0652 21.9856L33.9753 17.3397H13.2451C12.4323 17.3397 11.7734 16.6807 11.7734 15.8679C11.7734 15.0551 12.4323 14.3962 13.2451 14.3962H33.9753L30.0652 9.75028C29.4904 9.17554 29.4904 8.24371 30.0652 7.66897C30.6399 7.09423 31.5718 7.09423 32.1465 7.66897Z" fill="#FA103A"/>
</svg>
