<svg width="95" height="95" viewBox="0 0 95 95" fill="none" xmlns="http://www.w3.org/2000/svg">
<rect width="95" height="95" rx="21" fill="white"/>
<path d="M80.6274 30.1678C80.6057 30.0669 80.6057 29.9625 80.6274 29.8616C80.6088 29.7733 80.6088 29.6821 80.6274 29.5937V29.2493L80.3978 28.6753C80.3045 28.5186 80.1884 28.3767 80.0534 28.2543L79.709 27.9481H79.5176L64.4393 18.4189L50.2029 9.61687C49.8735 9.3556 49.4966 9.16065 49.093 9.04282H48.7869C48.4448 8.98573 48.0957 8.98573 47.7536 9.04282H47.3709C46.9264 9.14114 46.5002 9.30905 46.108 9.54033L17.5204 27.3358L17.176 27.6037L16.8315 27.9099L16.4488 28.1778L16.2575 28.4074L16.0279 28.9814V29.3259V29.5555C15.9907 29.8093 15.9907 30.0671 16.0279 30.3209V63.7305C16.0266 64.3808 16.191 65.0208 16.5058 65.59C16.8205 66.1591 17.275 66.6387 17.8266 66.9834L46.529 84.7406L47.103 84.9702H47.4092C48.0566 85.1756 48.7518 85.1756 49.3992 84.9702H49.7054L50.2794 84.7406L78.7522 67.2513C79.3037 66.9066 79.7583 66.427 80.073 65.8579C80.3877 65.2887 80.5522 64.6487 80.5509 63.9984V30.5888C80.5509 30.5888 80.6274 30.3209 80.6274 30.1678ZM48.1363 17.3474L54.9483 21.5571L33.5555 34.7984L26.7052 30.5888L48.1363 17.3474ZM44.3093 74.7522L23.2609 61.8935V37.4391L44.3093 50.4508V74.7522ZM48.1363 43.7153L40.8268 39.3143L62.2196 26.0346L69.5674 30.5888L48.1363 43.7153ZM73.0117 61.7787L51.9633 74.867V50.4508L73.0117 37.4391V61.7787Z" fill="#5E75EC"/>
</svg>
