<svg width="202" height="232" viewBox="0 0 202 232" fill="none" xmlns="http://www.w3.org/2000/svg">
<path d="M14.5831 226V196.909H33.8445V201.98H20.7337V208.912H32.5661V213.983H20.7337V226H14.5831ZM64.7145 211.455C64.7145 214.627 64.1132 217.326 62.9105 219.551C61.7173 221.777 60.0885 223.476 58.0241 224.651C55.9692 225.815 53.6586 226.398 51.0923 226.398C48.5071 226.398 46.187 225.811 44.1321 224.636C42.0772 223.462 40.4531 221.762 39.2599 219.537C38.0668 217.312 37.4702 214.617 37.4702 211.455C37.4702 208.282 38.0668 205.583 39.2599 203.358C40.4531 201.133 42.0772 199.437 44.1321 198.273C46.187 197.098 48.5071 196.511 51.0923 196.511C53.6586 196.511 55.9692 197.098 58.0241 198.273C60.0885 199.437 61.7173 201.133 62.9105 203.358C64.1132 205.583 64.7145 208.282 64.7145 211.455ZM58.4787 211.455C58.4787 209.4 58.1709 207.667 57.5554 206.256C56.9493 204.845 56.0923 203.775 54.9844 203.045C53.8764 202.316 52.5791 201.952 51.0923 201.952C49.6056 201.952 48.3082 202.316 47.2003 203.045C46.0923 203.775 45.2306 204.845 44.6151 206.256C44.009 207.667 43.706 209.4 43.706 211.455C43.706 213.509 44.009 215.242 44.6151 216.653C45.2306 218.064 46.0923 219.134 47.2003 219.864C48.3082 220.593 49.6056 220.957 51.0923 220.957C52.5791 220.957 53.8764 220.593 54.9844 219.864C56.0923 219.134 56.9493 218.064 57.5554 216.653C58.1709 215.242 58.4787 213.509 58.4787 211.455ZM69.2706 226V196.909H80.7479C82.9448 196.909 84.8198 197.302 86.3729 198.088C87.9354 198.865 89.1238 199.968 89.9382 201.398C90.7621 202.818 91.174 204.49 91.174 206.412C91.174 208.344 90.7573 210.006 89.924 211.398C89.0907 212.78 87.8833 213.841 86.3018 214.58C84.7299 215.318 82.8265 215.688 80.5916 215.688H72.907V210.744H79.5973C80.7715 210.744 81.7469 210.583 82.5234 210.261C83.3 209.939 83.8776 209.456 84.2564 208.812C84.6446 208.169 84.8388 207.368 84.8388 206.412C84.8388 205.446 84.6446 204.632 84.2564 203.969C83.8776 203.306 83.2952 202.804 82.5092 202.463C81.7327 202.113 80.7526 201.938 79.5689 201.938H75.4212V226H69.2706ZM84.9808 212.761L92.2109 226H85.4212L78.3473 212.761H84.9808ZM103.074 196.909H109.963L116.597 209.438H116.881L123.514 196.909H130.403L119.793 215.716V226H113.685V215.716L103.074 196.909ZM158.738 211.455C158.738 214.627 158.137 217.326 156.934 219.551C155.741 221.777 154.112 223.476 152.048 224.651C149.993 225.815 147.682 226.398 145.116 226.398C142.531 226.398 140.21 225.811 138.156 224.636C136.101 223.462 134.477 221.762 133.283 219.537C132.09 217.312 131.494 214.617 131.494 211.455C131.494 208.282 132.09 205.583 133.283 203.358C134.477 201.133 136.101 199.437 138.156 198.273C140.21 197.098 142.531 196.511 145.116 196.511C147.682 196.511 149.993 197.098 152.048 198.273C154.112 199.437 155.741 201.133 156.934 203.358C158.137 205.583 158.738 208.282 158.738 211.455ZM152.502 211.455C152.502 209.4 152.194 207.667 151.579 206.256C150.973 204.845 150.116 203.775 149.008 203.045C147.9 202.316 146.603 201.952 145.116 201.952C143.629 201.952 142.332 202.316 141.224 203.045C140.116 203.775 139.254 204.845 138.638 206.256C138.032 207.667 137.729 209.4 137.729 211.455C137.729 213.509 138.032 215.242 138.638 216.653C139.254 218.064 140.116 219.134 141.224 219.864C142.332 220.593 143.629 220.957 145.116 220.957C146.603 220.957 147.9 220.593 149.008 219.864C150.116 219.134 150.973 218.064 151.579 216.653C152.194 215.242 152.502 213.509 152.502 211.455ZM181.263 196.909H187.413V215.801C187.413 217.922 186.907 219.778 185.893 221.369C184.89 222.96 183.483 224.201 181.675 225.091C179.866 225.972 177.759 226.412 175.354 226.412C172.939 226.412 170.827 225.972 169.018 225.091C167.21 224.201 165.804 222.96 164.8 221.369C163.796 219.778 163.294 217.922 163.294 215.801V196.909H169.445V215.276C169.445 216.384 169.686 217.368 170.169 218.23C170.661 219.092 171.353 219.769 172.243 220.261C173.133 220.754 174.17 221 175.354 221C176.547 221 177.584 220.754 178.464 220.261C179.355 219.769 180.041 219.092 180.524 218.23C181.017 217.368 181.263 216.384 181.263 215.276V196.909Z" fill="#5E75EC"/>
<rect x="7" width="189" height="173" rx="59" fill="#5E75EC"/>
<path d="M154 58.5165C153.965 58.352 153.965 58.1819 154 58.0174C153.97 57.8733 153.97 57.7246 154 57.5806V57.019L153.626 56.083C153.474 55.8277 153.284 55.5963 153.064 55.3967L152.502 54.8975H152.19L127.606 39.3605L104.394 25.009C103.857 24.5831 103.242 24.2652 102.584 24.0731H102.085C101.528 23.98 100.958 23.98 100.4 24.0731H99.7765C99.0517 24.2334 98.3568 24.5072 97.7174 24.8843L51.1064 53.8991L50.5448 54.3359L49.9832 54.8351L49.3593 55.2719L49.0473 55.6463L48.6729 56.5822V57.1438V57.5182C48.6123 57.932 48.6123 58.3524 48.6729 58.7661V113.239C48.6708 114.3 48.9389 115.343 49.4521 116.271C49.9652 117.199 50.7064 117.981 51.6056 118.543L98.4038 147.495L99.3397 147.87H99.8389C100.895 148.205 102.028 148.205 103.084 147.87H103.583L104.519 147.495L150.943 118.98C151.842 118.418 152.583 117.636 153.096 116.708C153.609 115.78 153.877 114.736 153.875 113.676V59.2029C153.875 59.2029 154 58.7661 154 58.5165ZM101.024 37.6134L112.131 44.4771L77.251 66.0667L66.0818 59.2029L101.024 37.6134ZM94.7847 131.21L60.466 110.244V70.3721L94.7847 91.5873V131.21ZM101.024 80.6053L89.1065 73.4296L123.987 51.7776L135.967 59.2029L101.024 80.6053ZM141.583 110.057L107.264 131.397V91.5873L141.583 70.3721V110.057Z" fill="white"/>
</svg>
