<svg width="34" height="39" viewBox="0 0 34 39" fill="none" xmlns="http://www.w3.org/2000/svg">
<path d="M31.4456 36.3094V29.6465C31.4456 29.6465 31.4456 29.6465 31.3947 29.5956L25.9588 26.9317L21.2159 33.5946C20.8408 34.0714 20.1478 34.2367 19.6138 33.7535L16.7909 31.2422L13.9108 33.7981C13.3768 34.224 12.741 34.1732 12.3086 33.6392L7.61659 26.9253L2.12341 29.5892C2.12341 29.6401 2.12341 29.6401 2.12341 29.6401V36.3031H31.4455V36.3094H31.4456Z" fill="#C3C3C3"/>
<path d="M21.3241 24.5286C21.1652 24.3124 21.0571 24.1026 21.0571 23.8356V23.4097C19.7792 24.2107 18.3359 24.6876 16.791 24.6876C15.2461 24.6876 13.8092 24.2108 12.5249 23.4097V23.8356C12.5249 24.1026 12.4168 24.3696 12.207 24.5795L16.791 28.5786L21.3241 24.5286Z" fill="#C3C3C3"/>
<path d="M22.8688 13.8157C21.2666 14.5596 19.0859 14.9855 16.581 14.9855C13.917 14.9855 11.73 14.4515 10.5029 13.8665C12.5819 12.7475 17.7508 10.8275 22.8688 13.8157Z" fill="#C3C3C3"/>
<path d="M23.7207 9.07255V11.9526C19.1876 9.39041 14.0187 9.71465 9.80994 11.9018V9.07884C14.6037 7.41943 19.2449 7.41943 23.7207 9.07255Z" fill="#C3C3C3"/>
<path d="M26.7026 7.84546C26.7026 8.37949 26.5945 9.07254 25.9016 9.65741C25.9016 8.91351 25.9016 8.32225 25.9016 8.32225C25.9016 7.89631 25.6346 7.52121 25.2595 7.31134C22.9134 6.35128 20.4594 5.81725 18.0116 5.65832V4.27232C18.0116 3.68745 17.5348 3.20417 16.9434 3.20417C16.3586 3.20417 15.8753 3.68096 15.8753 4.27232V5.70917C13.4211 5.81725 10.9162 6.35128 8.41125 7.31134C7.98531 7.47027 7.7183 7.84537 7.7183 8.32225C7.7183 8.32225 7.7183 8.64011 7.7183 9.17423C7.40044 8.74829 7.3432 8.26511 7.3432 7.89631C7.29236 4.80644 11.7682 2.19336 16.988 2.19336C22.2776 2.19336 26.7026 4.80644 26.7026 7.84546Z" fill="#C3C3C3"/>
<path d="M32.3548 27.6755L23.1869 23.1932V21.5402C24.8399 19.5693 25.9081 16.8481 25.9081 13.8091C25.9081 13.7583 25.9081 13.0081 25.9081 12.048C28.305 10.929 28.839 9.11707 28.839 7.78191C28.8389 3.41412 23.6701 0 17.0071 0C10.344 0 5.17522 3.46496 5.17522 7.83275C5.17522 9.05983 5.65201 10.7128 7.68022 11.8827C7.68022 12.9508 7.68022 13.8027 7.68022 13.8536C7.68022 16.8926 8.74837 19.6074 10.4014 21.5846V23.2376L1.22708 27.6754C0.483179 28.0505 0 28.7943 0 29.6462V37.3709C0 37.9558 0.476787 38.439 1.06815 38.439H32.5137C33.0986 38.439 33.5819 37.9623 33.5819 37.3709V29.6462C33.5819 28.7944 33.0986 28.0443 32.3548 27.6755ZM17.0071 2.19343C22.2841 2.19343 26.709 4.80652 26.709 7.84554C26.709 8.37956 26.6009 9.07261 25.908 9.65748C25.908 8.91359 25.908 8.32232 25.908 8.32232C25.908 7.89638 25.6409 7.52129 25.2659 7.31142C22.9198 6.35135 20.4657 5.81733 18.018 5.6584V4.27239C18.018 3.68752 17.5412 3.20425 16.9498 3.20425C16.365 3.20425 15.8817 3.68103 15.8817 4.27239V5.70924C13.4275 5.81733 10.9226 6.35135 8.41762 7.31142C7.99168 7.47034 7.72467 7.84544 7.72467 8.32232C7.72467 8.32232 7.72467 8.64018 7.72467 9.17431C7.40681 8.74836 7.34957 8.26519 7.34957 7.89638C7.30512 4.80652 11.781 2.19343 17.0071 2.19343ZM10.0199 16.0025C11.8827 16.8036 14.3877 17.1215 16.5748 17.1215C19.296 17.1215 21.7437 16.6447 23.6129 15.7864C22.869 19.6264 20.148 22.5002 16.8419 22.5002C13.5421 22.5575 10.8209 19.7855 10.0199 16.0025ZM9.81002 9.07261C14.6101 7.4196 19.2449 7.4196 23.7208 9.07261V11.9527C19.1877 9.39686 14.0188 9.71472 9.81002 11.9019V9.07261ZM22.8689 13.8155C21.2668 14.5594 19.086 14.9853 16.5811 14.9853C13.9172 14.9853 11.7301 14.4513 10.5031 13.8663C12.582 12.7474 17.751 10.8273 22.8689 13.8155ZM15.087 29.9134L13.434 31.4075L9.70204 26.0797L10.2869 25.7618L15.087 29.9134ZM12.2069 24.6364C12.4231 24.4203 12.5248 24.1596 12.5248 23.8925V23.4666C13.8027 24.2676 15.246 24.7445 16.7909 24.7445C18.3358 24.7445 19.7727 24.2677 21.057 23.4666V23.8925C21.057 24.1595 21.1651 24.3693 21.324 24.5855L16.7909 28.5782L12.2069 24.6364ZM23.8798 26.1814L20.1479 31.4074L18.444 29.9133L23.0788 25.7553L23.8798 26.1814ZM2.18704 29.5892L7.68022 26.9253L12.3723 33.6391C12.7982 34.1731 13.3832 34.2812 13.9744 33.798L16.8545 31.2422L19.7346 33.798C20.2686 34.224 20.9617 34.1159 21.3368 33.6391L26.0797 26.9762L31.5156 29.6401C31.4648 29.6401 31.4648 29.6401 31.4648 29.6401V36.303H2.1362V29.6464C2.1362 29.6464 2.1362 29.6463 2.18704 29.5892Z" fill="#C3C3C3"/>
</svg>
