<svg width="170" height="216" viewBox="0 0 170 216" fill="none" xmlns="http://www.w3.org/2000/svg">
<path d="M80.3857 201.578L85.0763 206.306L89.6887 201.502C91.4502 199.667 93.2635 197.789 95.116 195.87C108.762 181.733 124.532 165.396 137.373 148.172C151.873 128.721 163.5 107.046 163.5 85C163.5 41.6456 128.354 6.5 85 6.5C41.6456 6.5 6.5 41.6456 6.5 85C6.5 107.03 18.1104 128.947 32.615 148.53C46.9419 167.874 64.866 185.938 79.5262 200.712L80.3857 201.578Z" stroke="#FA103A" stroke-opacity="0.4" stroke-width="13"/>
<path d="M81.8055 200.169L85.0528 203.442L88.246 200.117C90.0126 198.277 91.8286 196.395 93.6819 194.475C107.337 180.329 123.011 164.091 135.769 146.976C150.202 127.617 161.5 106.38 161.5 85C161.5 42.7502 127.25 8.5 85 8.5C42.7502 8.5 8.5 42.7502 8.5 85C8.5 106.369 19.7869 127.85 34.2222 147.34C48.462 166.566 66.2995 184.543 80.9825 199.34L81.8055 200.169Z" stroke="#FA103A" stroke-opacity="0.5" stroke-width="9"/>
<path d="M157 85C157 124.765 114.765 166 85 197C55.2355 167 13 124.765 13 85C13 45.2355 45.2355 13 85 13C124.765 13 157 45.2355 157 85Z" fill="#5E75EC"/>
<path d="M83.5802 198.409L85.0235 199.863L86.4427 198.385C88.2154 196.539 90.0349 194.654 91.8891 192.733C105.555 178.574 121.109 162.459 133.765 145.482C148.113 126.236 159 105.548 159 85C159 44.1309 125.869 11 85 11C44.1309 11 11 44.1309 11 85C11 105.543 21.8824 126.479 36.2311 145.852C50.3622 164.931 68.0917 182.799 82.8039 197.626L83.5802 198.409Z" stroke="#FA103A" stroke-opacity="0.83" stroke-width="4"/>
<path d="M123 64.5478C122.974 64.426 122.974 64.3001 123 64.1783C122.978 64.0717 122.978 63.9616 123 63.855V63.4393L122.723 62.7464C122.61 62.5574 122.47 62.3861 122.307 62.2384L121.891 61.8688H121.661L103.462 50.3679L86.2801 39.7445C85.8825 39.4292 85.4277 39.1939 84.9406 39.0517H84.5711C84.1582 38.9828 83.7368 38.9828 83.324 39.0517H82.8621C82.3256 39.1703 81.8112 39.373 81.3379 39.6521L46.835 61.1298L46.4193 61.4531L46.0036 61.8227L45.5417 62.146L45.3108 62.4231L45.0336 63.1159V63.5316V63.8088C44.9888 64.1151 44.9888 64.4263 45.0336 64.7325V105.055C45.0321 105.84 45.2306 106.613 45.6104 107.299C45.9902 107.986 46.5389 108.565 47.2045 108.981L81.846 130.413L82.5388 130.69H82.9083C83.6897 130.938 84.5287 130.938 85.3101 130.69H85.6796L86.3724 130.413L120.737 109.305C121.402 108.889 121.951 108.31 122.331 107.623C122.711 106.936 122.909 106.163 122.908 105.379V65.0559C122.908 65.0559 123 64.7325 123 64.5478ZM83.7859 49.0746L92.0075 54.1554L66.188 70.1366L57.9203 65.0559L83.7859 49.0746ZM79.167 118.357L53.7633 102.838V73.3236L79.167 89.0277V118.357ZM83.7859 80.8986L74.9639 75.5869L100.783 59.5594L109.651 65.0559L83.7859 80.8986ZM113.808 102.7L88.4047 118.496V89.0277L113.808 73.3236V102.7Z" fill="white"/>
</svg>
