<svg width="29" height="29" viewBox="0 0 29 29" fill="none" xmlns="http://www.w3.org/2000/svg">
<path fill-rule="evenodd" clip-rule="evenodd" d="M6.10134 1.87305C5.86928 1.87305 5.65282 1.98806 5.52545 2.17902L2.71407 6.39421H9.39896L10.3732 1.87305H6.10134ZM12.3182 1.87305L11.344 6.39421H17.6089L16.8434 1.87305H12.3182ZM18.7724 1.87305L19.5378 6.39421H26.2785L23.4441 2.17702C23.3166 1.98721 23.1008 1.87305 22.8696 1.87305H18.7724ZM27.0973 8.26726H19.6833V14.1418C19.6833 15.1071 18.4837 15.575 17.812 14.8718L16.6544 13.6599L15.3121 15.022C14.8798 15.4606 14.1621 15.4523 13.7405 15.0037L12.4531 13.6342L11.0439 14.9433C10.3534 15.5847 9.21833 15.1028 9.21833 14.1682V8.26726H1.90272V25.8029C1.90272 26.5341 2.5049 27.1269 3.24774 27.1269H25.7523C26.4951 27.1269 27.0973 26.5341 27.0973 25.8029V8.26726ZM11.121 8.26726V12.2963L11.7496 11.7124C12.1874 11.3057 12.8782 11.3287 13.2871 11.7637L14.5491 13.1062L15.8867 11.749C16.3166 11.3127 17.0294 11.3182 17.4524 11.761L17.7805 12.1046V8.26726H11.121ZM3.93492 1.15101C4.41405 0.432644 5.22836 0 6.10134 0H22.8696C23.7393 0 24.5511 0.429464 25.031 1.14351L29 7.04897V25.8029C29 27.5686 27.5459 29 25.7523 29H3.24774C1.45406 29 0 27.5686 0 25.8029V7.05077L3.93492 1.15101ZM16.4683 19.5056C16.4683 18.9883 16.8943 18.569 17.4197 18.569H24.1448C24.6702 18.569 25.0962 18.9883 25.0962 19.5056C25.0962 20.0228 24.6702 20.4421 24.1448 20.4421H17.4197C16.8943 20.4421 16.4683 20.0228 16.4683 19.5056ZM16.4683 23.7038C16.4683 23.1866 16.8943 22.7673 17.4197 22.7673H24.1448C24.6702 22.7673 25.0962 23.1866 25.0962 23.7038C25.0962 24.221 24.6702 24.6403 24.1448 24.6403H17.4197C16.8943 24.6403 16.4683 24.221 16.4683 23.7038Z" fill="#5E75EC"/>
</svg>
