<svg width="35" height="48" viewBox="0 0 35 48" fill="none" xmlns="http://www.w3.org/2000/svg">
<path d="M34.6334 17.3167C34.6334 26.8815 22.5476 40.7994 17.3167 48C11.5261 40.3032 0 26.8815 0 17.3167C0 12.724 1.82444 8.31947 5.07195 5.07195C8.31947 1.82444 12.724 0 17.3167 0C21.9094 0 26.314 1.82444 29.5615 5.07195C32.809 8.31947 34.6334 12.724 34.6334 17.3167Z" fill="#ED2F2B"/>
<path d="M13.4853 26.0017H4.75381C4.69872 26.0048 4.64351 26.0048 4.58842 26.0017C4.35943 25.9699 4.30006 25.8342 4.4294 25.6285C4.55874 25.4228 4.68596 25.2468 4.8047 25.0496C5.48532 23.9301 6.15958 22.8085 6.84021 21.6889C7.1837 21.1228 7.53992 20.5652 7.87917 19.9927C8.63189 18.7205 9.3634 17.461 10.1267 16.2036C10.6335 15.3555 11.1742 14.5349 11.6873 13.6953C12.0414 13.1207 12.3721 12.5355 12.7178 11.9545C12.951 11.5622 13.1842 11.1679 13.4323 10.782C13.4906 10.6967 13.5781 10.6356 13.6783 10.6102C13.8436 10.5893 14.0106 10.5864 14.1765 10.6017C15.3873 10.6017 16.598 10.6229 17.8087 10.6272C20.1771 10.6272 22.5434 10.6272 24.9097 10.6272C26.678 10.6272 28.4464 10.6632 30.2105 10.6738C30.6006 10.6738 30.9886 10.6484 31.3788 10.642C31.5272 10.642 31.7286 10.5975 31.7795 10.7692C31.8031 10.9105 31.7736 11.0555 31.6968 11.1763C31.2134 11.9842 30.7109 12.7814 30.2126 13.585C29.691 14.4332 29.1715 15.2862 28.6541 16.1443C28.3827 16.5959 28.1177 17.0496 27.8463 17.4992C27.2229 18.5424 26.5988 19.5841 25.9741 20.6245L24.2778 23.4658C23.8113 24.2418 23.3491 25.02 22.8763 25.7981C22.7406 26.0102 22.4946 26.042 22.255 26.042L20.1665 26.0292H13.4853V26.0017Z" fill="black"/>
</svg>
