<svg width="42" height="46" viewBox="0 0 42 46" fill="none" xmlns="http://www.w3.org/2000/svg">
<path d="M37.3333 4.6H27.58C26.6 1.932 24.0333 0 21 0C17.9667 0 15.4 1.932 14.42 4.6H4.66667C2.1 4.6 0 6.67 0 9.2V41.4C0 43.93 2.1 46 4.66667 46H37.3333C39.9 46 42 43.93 42 41.4V9.2C42 6.67 39.9 4.6 37.3333 4.6ZM21 4.6C22.2833 4.6 23.3333 5.635 23.3333 6.9C23.3333 8.165 22.2833 9.2 21 9.2C19.7167 9.2 18.6667 8.165 18.6667 6.9C18.6667 5.635 19.7167 4.6 21 4.6ZM21 13.8C24.8733 13.8 28 16.882 28 20.7C28 24.518 24.8733 27.6 21 27.6C17.1267 27.6 14 24.518 14 20.7C14 16.882 17.1267 13.8 21 13.8ZM35 41.4H7V38.18C7 33.58 16.3333 31.05 21 31.05C25.6667 31.05 35 33.58 35 38.18V41.4Z" fill="#5E75EC"/>
</svg>
