<svg width="36" height="32" viewBox="0 0 36 32" fill="none" xmlns="http://www.w3.org/2000/svg">
<path d="M34.2 16.3911C34.2 6.63111 26.532 0 18 0C9.558 0 1.8 6.48889 1.8 16.4978C0.72 17.1022 0 18.24 0 19.5556V23.1111C0 25.0667 1.62 26.6667 3.6 26.6667H5.4V15.8222C5.4 8.94222 11.034 3.37778 18 3.37778C24.966 3.37778 30.6 8.94222 30.6 15.8222V28.4444H16.2V32H30.6C32.58 32 34.2 30.4 34.2 28.4444V26.2756C35.262 25.7244 36 24.64 36 23.36V19.2711C36 18.0267 35.262 16.9422 34.2 16.3911Z" fill="#5E75EC"/>
<path d="M12.5 20C13.3284 20 14 19.1046 14 18C14 16.8954 13.3284 16 12.5 16C11.6716 16 11 16.8954 11 18C11 19.1046 11.6716 20 12.5 20Z" fill="#5E75EC"/>
<path d="M23.5 20C24.3284 20 25 19.1046 25 18C25 16.8954 24.3284 16 23.5 16C22.6716 16 22 16.8954 22 18C22 19.1046 22.6716 20 23.5 20Z" fill="#5E75EC"/>
<path d="M29 14.3581C28.1196 9.05581 23.5709 5 18.0868 5C12.5293 5 6.54989 9.66977 7.02678 17C11.5571 15.1209 14.9687 11.0279 15.9408 6.04186C18.3435 10.9349 23.2774 14.3023 29 14.3581Z" fill="#5E75EC"/>
</svg>
