<svg width="44" height="30" viewBox="0 0 44 30" fill="none" xmlns="http://www.w3.org/2000/svg">
<path d="M37.3333 7.66666H31.5833V0.333328H4.74996C2.64163 0.333328 0.916626 1.98333 0.916626 3.99999V24.1667H4.74996C4.74996 27.21 7.31829 29.6667 10.5 29.6667C13.6816 29.6667 16.25 27.21 16.25 24.1667H27.75C27.75 27.21 30.3183 29.6667 33.5 29.6667C36.6816 29.6667 39.25 27.21 39.25 24.1667H43.0833V15L37.3333 7.66666ZM36.375 10.4167L40.1316 15H31.5833V10.4167H36.375ZM10.5 26C9.44579 26 8.58329 25.175 8.58329 24.1667C8.58329 23.1583 9.44579 22.3333 10.5 22.3333C11.5541 22.3333 12.4166 23.1583 12.4166 24.1667C12.4166 25.175 11.5541 26 10.5 26ZM14.755 20.5C13.7008 19.3817 12.2058 18.6667 10.5 18.6667C8.79413 18.6667 7.29913 19.3817 6.24496 20.5H4.74996V3.99999H27.75V20.5H14.755ZM33.5 26C32.4458 26 31.5833 25.175 31.5833 24.1667C31.5833 23.1583 32.4458 22.3333 33.5 22.3333C34.5541 22.3333 35.4166 23.1583 35.4166 24.1667C35.4166 25.175 34.5541 26 33.5 26Z" fill="#5E75EC"/>
</svg>
